<?xml version="1.0" encoding="UTF-8"?>
<svg id="b" xmlns="http://www.w3.org/2000/svg" version="1.1" viewBox="0 0 159.4 632">
  <!-- Generator: Adobe Illustrator 29.0.1, SVG Export Plug-In . SVG Version: 2.1.0 Build 192)  -->
  <defs>
    <style>
      .st0 {
        stroke-width: 1.3px;
      }

      .st0, .st1, .st2, .st3 {
        fill: none;
        stroke-linecap: round;
        stroke-linejoin: round;
      }

      .st0, .st1, .st2, .st3, .st4, .st5 {
        stroke: #000;
      }

      .st1 {
        stroke-width: 1.4px;
      }

      .st2 {
        stroke-width: 1.5px;
      }

      .st3 {
        stroke-width: 1.5px;
      }

      .st4 {
        stroke-width: 2.9px;
      }

      .st4, .st5 {
        fill: #ffeb79;
        stroke-miterlimit: 10;
      }

      .st5 {
        stroke-width: 2.8px;
      }
    </style>
  </defs>
  <g id="c">
    <g>
      <g>
        <path d="M6.7,81v13.3h-2.9v-13.3h2.9Z"/>
        <path d="M19,81v13.3h-2.9l-3.8-8.3v8.3h-2.8v-13.3h2.8l3.8,8.3v-8.3h2.8,0Z"/>
        <path d="M24,81l2.3,10.3.4,3h-2.1l-3.8-13.3h3.2ZM25.9,91.3l2.3-10.3h3.2l-3.8,13.3h-2.1l.4-3Z"/>
        <path d="M36.1,81v13.3h-2.9v-13.3h2.9ZM41,81v2.4h-5.8v-2.4h5.8ZM40.2,86.3v2.3h-5v-2.3s5,0,5,0ZM41,91.9v2.4h-5.8v-2.4h5.8Z"/>
        <path d="M48.6,90.8c0-.2,0-.4,0-.6s-.1-.4-.3-.5c-.1-.2-.3-.3-.5-.5-.2-.2-.6-.3-1-.5-.5-.2-1-.4-1.4-.7s-.9-.5-1.2-.8-.7-.7-.9-1.1-.3-.9-.3-1.5.1-1.1.3-1.5.5-.9.9-1.2.8-.6,1.4-.8c.5-.2,1.1-.3,1.7-.3s1.6.2,2.2.5c.6.3,1.1.8,1.5,1.4.4.6.5,1.3.5,2.2h-2.9c0-.4,0-.7-.1-.9,0-.3-.2-.5-.5-.6-.2-.2-.5-.2-.8-.2s-.5,0-.8.2c-.2.1-.4.3-.5.5-.1.2-.2.5-.2.7s0,.4.2.6c.1.2.2.3.4.5.2.1.4.3.6.4.2.1.5.2.8.4.6.2,1.1.5,1.6.8.5.3.9.6,1.2.9s.6.8.7,1.2c.2.4.2.9.2,1.5s0,1.1-.3,1.6c-.2.5-.5.8-.8,1.2-.4.3-.8.6-1.3.7-.5.2-1.1.3-1.7.3s-1.2,0-1.8-.3-1.1-.4-1.5-.8-.8-.8-1-1.4c-.3-.6-.4-1.2-.4-2h2.9c0,.4,0,.7.1,1,0,.3.2.5.3.7.1.2.3.3.6.4.2,0,.5.1.8.1s.6,0,.8-.2c.2-.1.3-.3.4-.5,0-.2.1-.5.1-.7h0Z"/>
        <path d="M62.7,81v2.4h-9.4v-2.4h9.4ZM59.5,81v13.3h-2.9v-13.3h2.9Z"/>
        <path d="M67.9,81v13.3h-2.9v-13.3h2.9Z"/>
        <path d="M79.9,87.2v5.5c-.2.2-.5.4-.9.7-.4.3-.9.5-1.5.7-.6.2-1.3.3-2.1.3s-1.4-.1-2-.3-1.1-.6-1.6-1.1c-.4-.5-.8-1.1-1-1.8s-.3-1.6-.3-2.5v-2.2c0-1,.1-1.8.3-2.5.2-.7.6-1.3,1-1.8.4-.5.9-.8,1.5-1.1.6-.2,1.2-.3,2-.3,1,0,1.9.2,2.5.5.7.3,1.2.9,1.5,1.5s.5,1.5.6,2.4h-2.8c0-.5-.1-1-.3-1.3-.1-.3-.3-.5-.6-.7s-.6-.2-.9-.2-.6,0-.8.2-.4.3-.6.6c-.2.3-.3.6-.4,1,0,.4-.1,1-.1,1.6v2.3c0,.6,0,1.1.1,1.6,0,.4.2.8.4,1s.4.5.7.6c.3.1.6.2,1,.2s.5,0,.7,0c.2,0,.3-.1.4-.2s.2-.1.3-.2v-2.3h-1.8v-2.1h4.7,0Z"/>
        <path d="M85.4,81v13.3h-2.9v-13.3h2.9Z"/>
        <path d="M91.1,81v13.3h-2.9v-13.3h2.9ZM95.9,81v2.4h-5.8v-2.4h5.8ZM95.2,86.3v2.3h-5v-2.3s5,0,5,0ZM95.9,91.9v2.4h-5.8v-2.4h5.8Z"/>
        <path d="M98,81h4.4c.9,0,1.7.2,2.3.5.6.3,1.1.8,1.5,1.4.3.6.5,1.3.5,2.2s0,1.4-.3,1.9-.5.9-.8,1.3c-.4.3-.8.6-1.3.8l-.9.6h-3.5v-2.4s2.4,0,2.4,0c.3,0,.6,0,.8-.2.2-.2.4-.4.5-.7.1-.3.2-.6.2-1s0-.7-.2-1-.3-.5-.5-.7c-.2-.2-.5-.2-.8-.2h-1.5v11h-2.9v-13.3h0ZM104,94.3l-2.4-5.9h3.1l2.5,5.8h0c0,.1-3.1.1-3.1.1h0Z"/>
        <path d="M112.1,81v13.3h-2.9v-13.3h2.9ZM116.9,81v2.4h-5.8v-2.4h5.8ZM116.2,86.3v2.3h-5v-2.3s5,0,5,0ZM116.9,91.9v2.4h-5.8v-2.4h5.8Z"/>
        <path d="M128.5,81v13.3h-2.9l-3.8-8.3v8.3h-2.8v-13.3h2.8l3.8,8.3v-8.3h2.8,0Z"/>
      </g>
      <g>
        <path d="M5.8,106.4v8.3h-1.7v-8.3h1.7ZM8.7,106.4v1.4h-3.3v-1.4h3.3ZM8.4,110v1.4h-3v-1.4h3Z"/>
        <path d="M15.9,109.9v1.4c0,.6,0,1.1-.2,1.5-.1.4-.3.8-.6,1.1-.3.3-.6.5-.9.7s-.8.2-1.2.2-.9,0-1.2-.2-.7-.4-.9-.7c-.3-.3-.5-.7-.6-1.1-.1-.4-.2-1-.2-1.5v-1.4c0-.6,0-1.1.2-1.6.1-.5.3-.8.6-1.1.3-.3.6-.5.9-.7s.8-.2,1.2-.2.9,0,1.2.2c.4.2.7.4.9.7.3.3.5.7.6,1.1s.2,1,.2,1.6ZM14.3,111.3v-1.4c0-.4,0-.7,0-1,0-.3-.1-.5-.3-.7-.1-.2-.3-.3-.4-.4s-.4-.1-.6-.1-.4,0-.6.1-.3.2-.4.4c-.1.2-.2.4-.3.7,0,.3,0,.6,0,1v1.4c0,.4,0,.7,0,1,0,.3.1.5.3.7.1.2.3.3.4.4s.4.1.6.1.4,0,.6-.1.3-.2.4-.4c.1-.2.2-.4.3-.7,0-.3,0-.6,0-1Z"/>
        <path d="M17.6,106.4h2.7c.6,0,1,0,1.4.3.4.2.7.5.9.8s.3.8.3,1.4,0,.8-.2,1.2c-.1.3-.3.6-.5.8-.2.2-.5.4-.8.5l-.5.3h-2.2v-1.4s1.5,0,1.5,0c.2,0,.4,0,.6-.2s.3-.2.3-.4.1-.4.1-.7,0-.5-.1-.7c0-.2-.2-.3-.3-.4s-.3-.1-.6-.1h-1v6.9h-1.7v-8.3h0ZM21.4,114.7l-1.5-3.7h1.8s1.6,3.6,1.6,3.6h0c0,0-1.8,0-1.8,0h0Z"/>
        <path d="M28,112.6c0-.1,0-.3,0-.4s0-.2-.2-.3-.2-.2-.4-.3-.4-.2-.6-.3c-.3-.1-.6-.3-.9-.4s-.6-.3-.8-.5c-.2-.2-.4-.4-.6-.7-.1-.3-.2-.6-.2-.9s0-.7.2-1,.3-.5.5-.7.5-.4.8-.5c.3-.1.7-.2,1.1-.2s1,.1,1.4.3c.4.2.7.5.9.9.2.4.3.8.3,1.3h-1.7c0-.2,0-.4-.1-.6,0-.2-.2-.3-.3-.4-.1-.1-.3-.2-.6-.2s-.4,0-.5.1-.2.2-.3.3c0,.1-.1.3-.1.5s0,.3.1.4c0,.1.2.2.3.3.1,0,.3.2.4.3.2,0,.3.2.5.2.4.1.7.3,1,.5.3.2.5.4.7.6.2.2.3.5.4.7.1.3.1.6.1.9s0,.7-.2.9-.3.5-.5.7c-.2.2-.5.4-.8.5-.3.1-.7.2-1.1.2s-.8,0-1.1-.2c-.3-.1-.6-.3-.9-.5s-.5-.5-.6-.9c-.1-.3-.2-.8-.2-1.2h1.7c0,.3,0,.5,0,.6,0,.2.1.3.2.4s.2.2.4.2c.2,0,.3,0,.5,0s.4,0,.5-.1.2-.2.3-.3c0-.1,0-.3,0-.5h0Z"/>
        <path d="M35.2,112h1.7c0,.6-.1,1.2-.4,1.6-.2.4-.6.8-1,1-.4.2-.9.3-1.5.3s-.9,0-1.2-.2c-.4-.2-.7-.4-.9-.7s-.4-.7-.6-1.1c-.1-.4-.2-1-.2-1.5v-1.4c0-.6,0-1.1.2-1.5.1-.4.3-.8.6-1.1s.6-.5.9-.7c.4-.2.8-.2,1.2-.2s1.1.1,1.5.3.7.6.9,1c.2.4.4,1,.4,1.6h-1.7c0-.4,0-.7-.1-.9s-.2-.4-.4-.5c-.2,0-.4-.1-.7-.1s-.4,0-.6.1-.3.2-.4.4c-.1.2-.2.4-.2.7,0,.3,0,.6,0,1v1.4c0,.4,0,.7,0,1,0,.3.1.5.2.7,0,.2.2.3.4.4.2,0,.4.1.6.1s.5,0,.7-.1.3-.2.4-.5c0-.2.1-.5.1-.9h0Z"/>
        <path d="M40,106.4v8.3h-1.7v-8.3h1.7ZM42.9,109.8v1.4h-3.4v-1.4h3.4ZM44.1,106.4v8.3h-1.7v-8.3h1.7Z"/>
        <path d="M47.6,106.4v8.3h-1.7v-8.3s1.7,0,1.7,0ZM50.7,106.4v1.4h-3.6v-1.4h3.6ZM50.2,109.8v1.4h-3.1v-1.4h3.1ZM50.7,113.4v1.4h-3.6v-1.4h3.6Z"/>
        <path d="M57.9,106.4v8.3h-1.6l-2.6-5.2v5.2h-1.6v-8.3h1.6l2.6,5.3v-5.3h1.6,0Z"/>
        <path d="M61,113.3v1.1c0,.4-.1.9-.3,1.3-.2.4-.5.8-.8,1.1l-.9-.4c0-.2.2-.4.3-.5,0-.2.2-.4.2-.6s0-.5,0-.7v-1.2h1.4,0Z"/>
        <path d="M69,106.4h1.7v5.7c0,.6-.1,1.2-.4,1.6-.2.4-.6.7-1,.9s-.9.3-1.4.3-1,0-1.4-.3-.7-.5-1-.9c-.2-.4-.3-.9-.3-1.6v-5.7h1.7v5.7c0,.4,0,.6.1.8,0,.2.2.3.4.4s.4.1.6.1.4,0,.6-.1c.2,0,.3-.2.4-.4,0-.2.1-.5.1-.8v-5.7h0ZM65.7,105.2c0-.2,0-.4.2-.5.1-.1.3-.2.6-.2s.4,0,.6.2.2.3.2.5,0,.4-.2.5c-.2.1-.3.2-.6.2s-.4,0-.6-.2c-.1-.1-.2-.3-.2-.5ZM68.5,105.2c0-.2,0-.4.2-.5.1-.1.3-.2.6-.2s.4,0,.6.2c.2.1.2.3.2.5s0,.4-.2.5c-.2.1-.3.2-.6.2s-.4,0-.6-.2c-.1-.1-.2-.3-.2-.5Z"/>
        <path d="M75.1,111.1h-1.7v-1.2s1.4,0,1.4,0c.2,0,.4,0,.6-.1s.3-.2.3-.3c0-.2.1-.3.1-.6s0-.5-.1-.6c0-.2-.2-.3-.3-.3-.1,0-.3-.1-.6-.1h-.9v6.9h-1.7v-8.3h2.6c.4,0,.8,0,1.1.1.3,0,.6.2.8.4.2.2.4.4.5.7s.2.6.2,1,0,.7-.2.9-.4.5-.6.7c-.3.2-.7.3-1.1.3l-.4.5h0ZM75.1,114.7h-2.1l.7-1.4h1.5c.2,0,.4,0,.5-.1.1,0,.2-.2.3-.4,0-.2,0-.3,0-.6s0-.4,0-.6c0-.2-.1-.3-.3-.4-.1,0-.3-.1-.5-.1h-1.4v-1.2h1.8l.4.5c.4,0,.8,0,1.1.3.3.2.5.4.6.7.1.3.2.6.2.9,0,.5-.1,1-.3,1.3-.2.4-.5.6-.9.8-.4.2-.9.3-1.4.3h0Z"/>
        <path d="M81,106.4v8.3h-1.7v-8.3h1.7ZM84.1,106.4v1.4h-3.6v-1.4h3.6ZM83.6,109.8v1.4h-3.1v-1.4h3.1ZM84.1,113.4v1.4h-3.6v-1.4h3.6Z"/>
        <path d="M85.5,106.4h2.7c.6,0,1,0,1.4.3.4.2.7.5.9.8s.3.8.3,1.4,0,.8-.2,1.2c-.1.3-.3.6-.5.8-.2.2-.5.4-.8.5l-.5.3h-2.2v-1.4s1.5,0,1.5,0c.2,0,.4,0,.6-.2s.3-.2.3-.4.1-.4.1-.7,0-.5-.1-.7c0-.2-.2-.3-.3-.4-.1,0-.3-.1-.6-.1h-1v6.9h-1.7v-8.3h0ZM89.3,114.7l-1.5-3.7h1.8s1.6,3.6,1.6,3.6h0c0,0-1.8,0-1.8,0h0Z"/>
        <path d="M95.2,111.8h-1.7v-1.4h1.7c.2,0,.4,0,.6-.2.1-.1.3-.3.3-.4,0-.2.1-.4.1-.6s0-.5-.1-.7c0-.2-.2-.4-.3-.5-.1-.1-.3-.2-.6-.2h-1.2v6.9h-1.7v-8.3h2.8c.6,0,1,.1,1.4.4.4.2.7.6.9,1s.3.9.3,1.4-.1,1-.3,1.4-.5.7-.9.9-.9.3-1.4.3h0Z"/>
        <path d="M99.5,106.4h2.7c.6,0,1,0,1.4.3.4.2.7.5.9.8s.3.8.3,1.4,0,.8-.2,1.2c-.1.3-.3.6-.5.8-.2.2-.5.4-.8.5l-.5.3h-2.2v-1.4s1.5,0,1.5,0c.2,0,.4,0,.6-.2s.3-.2.3-.4.1-.4.1-.7,0-.5-.1-.7c0-.2-.2-.3-.3-.4-.1,0-.3-.1-.6-.1h-1v6.9h-1.7v-8.3h0ZM103.2,114.7l-1.5-3.7h1.8s1.6,3.6,1.6,3.6h0c0,0-1.8,0-1.8,0h0Z"/>
        <path d="M110.1,106.4h1.7v5.7c0,.6-.1,1.2-.4,1.6-.2.4-.6.7-1,.9s-.9.3-1.4.3-1,0-1.4-.3-.7-.5-1-.9c-.2-.4-.3-.9-.3-1.6v-5.7h1.7v5.7c0,.4,0,.6.1.8,0,.2.2.3.4.4s.4.1.6.1.4,0,.6-.1c.2,0,.3-.2.4-.4,0-.2.1-.5.1-.8v-5.7h0ZM106.8,105.2c0-.2,0-.4.2-.5.1-.1.3-.2.6-.2s.4,0,.6.2.2.3.2.5,0,.4-.2.5c-.2.1-.3.2-.6.2s-.4,0-.6-.2c-.1-.1-.2-.3-.2-.5ZM109.6,105.2c0-.2,0-.4.2-.5.1-.1.3-.2.6-.2s.4,0,.6.2c.2.1.2.3.2.5s0,.4-.2.5c-.2.1-.3.2-.6.2s-.4,0-.6-.2c-.1-.1-.2-.3-.2-.5Z"/>
        <path d="M115.1,106.4v8.3h-1.7v-8.3h1.7ZM118.1,106.4v1.4h-3.3v-1.4h3.3ZM117.7,110v1.4h-3v-1.4h3Z"/>
        <path d="M121.1,106.4v8.3h-1.7v-8.3h1.7ZM124.2,106.4v1.4h-3.6v-1.4h3.6ZM123.7,109.8v1.4h-3.1v-1.4h3.1ZM124.2,113.4v1.4h-3.6v-1.4h3.6Z"/>
        <path d="M131.4,106.4v8.3h-1.6l-2.6-5.2v5.2h-1.6v-8.3h1.6l2.6,5.3v-5.3h1.6,0Z"/>
        <path d="M139.6,106.4h1.7v5.7c0,.6-.1,1.2-.4,1.6-.2.4-.6.7-1,.9s-.9.3-1.4.3-1,0-1.4-.3-.7-.5-1-.9c-.2-.4-.3-.9-.3-1.6v-5.7h1.7v5.7c0,.4,0,.6.1.8,0,.2.2.3.4.4s.4.1.6.1.4,0,.6-.1c.2,0,.3-.2.4-.4,0-.2.1-.5.1-.8v-5.7h0Z"/>
        <path d="M148.8,106.4v8.3h-1.6l-2.6-5.2v5.2h-1.6v-8.3h1.6l2.6,5.3v-5.3h1.6,0Z"/>
        <path d="M152.3,106.4v8.3h-1.7v-8.3h1.7ZM152.8,114.7h-1.5v-1.4h1.5c.4,0,.7,0,.9-.2s.4-.4.5-.7c0-.3.1-.7.1-1.2v-1.3c0-.4,0-.7,0-1s-.1-.5-.3-.7-.3-.3-.5-.4c-.2,0-.4-.1-.7-.1h-1.5v-1.4h1.5c.5,0,.9,0,1.3.2.4.2.7.4,1,.7.3.3.5.7.7,1.1s.2.9.2,1.5v1.3c0,.6,0,1.1-.2,1.5s-.4.8-.6,1.1c-.3.3-.6.5-1,.7-.4.2-.8.2-1.3.2h0Z"/>
        <path d="M5.8,120.5v8.3h-1.7v-8.3h1.7ZM6.3,128.8h-1.5v-1.4h1.5c.4,0,.7,0,.9-.2s.4-.4.5-.7c0-.3.1-.7.1-1.2v-1.3c0-.4,0-.7,0-1s-.1-.5-.3-.7-.3-.3-.5-.4c-.2,0-.4-.1-.7-.1h-1.5v-1.4h1.5c.5,0,.9,0,1.3.2.4.2.7.4,1,.7.3.3.5.7.7,1.1s.2.9.2,1.5v1.3c0,.6,0,1.1-.2,1.5s-.4.8-.6,1.1c-.3.3-.6.5-1,.7-.4.2-.8.2-1.3.2h0Z"/>
        <path d="M12.9,120.5v8.3h-1.7v-8.3h1.7Z"/>
        <path d="M16.4,120.5v8.3h-1.7v-8.3h1.7ZM19.5,120.5v1.4h-3.6v-1.4h3.6ZM19,123.9v1.4h-3.1v-1.4h3.1ZM19.5,127.4v1.4h-3.6v-1.4h3.6Z"/>
        <path d="M24.8,120.5l1.1,7.1-.2,1.2h-1.1l-1.5-8.3h1.7ZM25.3,127.6l1.3-7.1h.9l.3,1.1-1.4,7.2h-1s0-1.2,0-1.2ZM28,120.5l1.3,7.1v1.2h-1.1l-1.4-7.2.3-1.1h.9,0ZM28.7,127.6l1.1-7.1h1.6l-1.5,8.3h-1.1l-.2-1.3h0Z"/>
        <path d="M35.5,122l-1.8,6.8h-1.8l2.6-8.3h1.1v1.5c-.1,0-.1,0-.1,0ZM37,125.7v1.4h-3.8v-1.4h3.8ZM36.9,128.8l-1.8-6.8-.2-1.5h1.1l2.6,8.3h-1.8Z"/>
        <path d="M41.6,120.5v8.3h-1.7v-8.3h1.7ZM44.6,123.9v1.4h-3.4v-1.4h3.4ZM45.8,120.5v8.3h-1.7v-8.3h1.7Z"/>
        <path d="M47.5,120.5h2.7c.6,0,1,0,1.4.3.4.2.7.5.9.8s.3.8.3,1.4,0,.8-.2,1.2c-.1.3-.3.6-.5.8-.2.2-.5.4-.8.5l-.5.3h-2.2v-1.4s1.5,0,1.5,0c.2,0,.4,0,.6-.2s.3-.2.3-.4.1-.4.1-.6,0-.5-.1-.7c0-.2-.2-.3-.3-.4-.1,0-.3-.1-.6-.1h-1v6.9h-1.7v-8.3h0ZM51.3,128.8l-1.5-3.7h1.8s1.6,3.6,1.6,3.6h0c0,0-1.8,0-1.8,0h0Z"/>
        <path d="M56.1,120.5v8.3h-1.7v-8.3h1.7ZM59.1,123.9v1.4h-3.4v-1.4h3.4ZM60.3,120.5v8.3h-1.7v-8.3h1.7Z"/>
        <path d="M63.7,120.5v8.3h-1.7v-8.3h1.7ZM66.8,120.5v1.4h-3.6v-1.4h3.6ZM66.3,123.9v1.4h-3.1v-1.4h3.1ZM66.8,127.4v1.4h-3.6v-1.4h3.6Z"/>
        <path d="M69.9,120.5v8.3h-1.7v-8.3h1.7Z"/>
        <path d="M77,120.5v1.4h-5.8v-1.4h5.8ZM74.9,120.5v8.3h-1.7v-8.3h1.7Z"/>
        <path d="M83.8,122l-1.8,6.8h-1.8l2.6-8.3h1.1v1.5c-.1,0-.1,0-.1,0ZM85.2,125.7v1.4h-3.8v-1.4h3.8ZM85.2,128.8l-1.8-6.8-.2-1.5h1.1l2.6,8.3h-1.8Z"/>
        <path d="M91.8,120.5h1.7v5.7c0,.6-.1,1.2-.4,1.6-.2.4-.6.7-1,.9s-.9.3-1.4.3-1,0-1.4-.3-.7-.5-1-.9c-.2-.4-.3-.9-.3-1.6v-5.7h1.7v5.7c0,.4,0,.6.1.8,0,.2.2.3.4.4s.4.1.6.1.4,0,.6-.1c.2,0,.3-.2.4-.4,0-.2.1-.5.1-.8v-5.7h0Z"/>
        <path d="M96.8,120.5v8.3h-1.7v-8.3h1.7ZM99.8,120.5v1.4h-3.3v-1.4h3.3ZM99.5,124v1.4h-3v-1.4h3Z"/>
        <path d="M102.8,120.5v8.3h-1.7v-8.3h1.7ZM103.3,128.8h-1.5v-1.4h1.5c.4,0,.7,0,.9-.2s.4-.4.5-.7c0-.3.1-.7.1-1.2v-1.3c0-.4,0-.7,0-1s-.1-.5-.3-.7-.3-.3-.5-.4c-.2,0-.4-.1-.7-.1h-1.5v-1.4h1.5c.5,0,.9,0,1.3.2.4.2.7.4,1,.7.3.3.5.7.7,1.1s.2.9.2,1.5v1.3c0,.6,0,1.1-.2,1.5s-.4.8-.6,1.1c-.3.3-.6.5-1,.7-.4.2-.8.2-1.3.2h0Z"/>
        <path d="M109.9,120.5v8.3h-1.7v-8.3h1.7ZM113,120.5v1.4h-3.6v-1.4h3.6ZM112.5,123.9v1.4h-3.1v-1.4h3.1ZM113,127.4v1.4h-3.6v-1.4h3.6Z"/>
        <path d="M118.3,126h1.7c0,.6-.1,1.2-.4,1.6-.2.4-.6.8-1,1-.4.2-.9.3-1.5.3s-.9,0-1.2-.2c-.4-.2-.7-.4-.9-.7s-.4-.7-.6-1.1c-.1-.4-.2-1-.2-1.5v-1.4c0-.6,0-1.1.2-1.5.1-.4.3-.8.6-1.1s.6-.5.9-.7c.4-.2.8-.2,1.2-.2s1.1.1,1.5.3.7.6.9,1c.2.4.4,1,.4,1.6h-1.7c0-.4,0-.7-.1-.9s-.2-.4-.4-.5c-.2,0-.4-.1-.7-.1s-.4,0-.6.1-.3.2-.4.4c-.1.2-.2.4-.2.7,0,.3,0,.6,0,1v1.4c0,.4,0,.7,0,1,0,.3.1.5.2.7,0,.2.2.3.4.4.2,0,.4.1.6.1s.5,0,.7-.1.3-.2.4-.5c0-.2.1-.5.1-.9h0Z"/>
        <path d="M123.1,120.5v8.3h-1.7v-8.3h1.7ZM127.3,120.5l-2.7,4.1-1.7,2.1-.3-1.7,1.1-1.8,1.6-2.7h2ZM125.3,128.8l-1.8-3.8,1.2-1.1,2.6,4.9h-2,0Z"/>
        <path d="M130,120.5v8.3h-1.7v-8.3h1.7ZM133.1,120.5v1.4h-3.6v-1.4h3.6ZM132.6,123.9v1.4h-3.1v-1.4h3.1ZM133.1,127.4v1.4h-3.6v-1.4h3.6Z"/>
        <path d="M140.3,120.5v8.3h-1.6l-2.6-5.2v5.2h-1.6v-8.3h1.6l2.6,5.3v-5.3h1.6,0Z"/>
        <path d="M142,128c0-.3,0-.5.3-.6.2-.2.4-.3.7-.3s.5,0,.7.3c.2.2.3.4.3.6s0,.5-.3.6-.4.3-.7.3-.5,0-.7-.3-.3-.4-.3-.6Z"/>
      </g>
      <g>
        <path d="M7,248.4v13.3h-2.9v-13.3h2.9ZM11.9,248.4v2.4h-5.8v-2.4h5.8ZM11.1,253.7v2.3h-5v-2.3h5ZM11.9,259.4v2.4h-5.8v-2.4h5.8Z"/>
        <path d="M23.4,248.4v13.3h-2.9l-3.8-8.3v8.3h-2.8v-13.3h2.8l3.8,8.3v-8.3h2.8,0Z"/>
        <path d="M35.3,254.7v5.5c-.2.2-.5.4-.9.7-.4.3-.9.5-1.5.7-.6.2-1.3.3-2.1.3s-1.4-.1-2-.3-1.1-.6-1.6-1.1c-.4-.5-.8-1.1-1-1.8s-.3-1.6-.3-2.5v-2.2c0-1,.1-1.8.3-2.5.2-.7.6-1.3,1-1.8.4-.5.9-.8,1.5-1.1.6-.2,1.2-.3,2-.3,1,0,1.9.2,2.5.5.7.3,1.2.9,1.5,1.5s.5,1.5.6,2.5h-2.8c0-.5-.1-1-.3-1.3-.1-.3-.3-.5-.6-.7s-.6-.2-.9-.2-.6,0-.8.2-.4.3-.6.6c-.2.3-.3.6-.4,1,0,.4-.1,1-.1,1.6v2.3c0,.6,0,1.1.1,1.6,0,.4.2.8.4,1s.4.5.7.6c.3.1.6.2,1,.2s.5,0,.7,0c.2,0,.3-.1.4-.2.1,0,.2-.1.3-.2v-2.3h-1.8v-2.1h4.7,0Z"/>
        <path d="M42.7,251l-2.7,10.7h-3.1l4.1-13.3h1.9l-.3,2.6h0ZM44.9,256.8v2.4h-5.9v-2.4h5.9ZM44.8,261.7l-2.7-10.7-.3-2.6h2l4.2,13.3h-3.1Z"/>
        <path d="M58.7,254.7v5.5c-.2.2-.5.4-.9.7-.4.3-.9.5-1.5.7-.6.2-1.3.3-2.1.3s-1.4-.1-2-.3-1.1-.6-1.6-1.1c-.4-.5-.8-1.1-1-1.8s-.3-1.6-.3-2.5v-2.2c0-1,.1-1.8.3-2.5.2-.7.6-1.3,1-1.8.4-.5.9-.8,1.5-1.1.6-.2,1.2-.3,2-.3,1,0,1.9.2,2.5.5.7.3,1.2.9,1.5,1.5s.5,1.5.6,2.5h-2.8c0-.5-.1-1-.3-1.3-.1-.3-.3-.5-.6-.7s-.6-.2-.9-.2-.6,0-.8.2-.4.3-.6.6c-.2.3-.3.6-.4,1,0,.4-.1,1-.1,1.6v2.3c0,.6,0,1.1.1,1.6,0,.4.2.8.4,1s.4.5.7.6c.3.1.6.2,1,.2s.5,0,.7,0c.2,0,.3-.1.4-.2.1,0,.2-.1.3-.2v-2.3h-1.8v-2.1h4.7,0Z"/>
        <path d="M64.2,248.4v13.3h-2.9v-13.3h2.9Z"/>
        <path d="M69.9,248.4v13.3h-2.9v-13.3h2.9ZM74.8,248.4v2.4h-5.8v-2.4h5.8ZM74,253.7v2.3h-5v-2.3h5ZM74.8,259.4v2.4h-5.8v-2.4h5.8Z"/>
        <path d="M76.9,248.4h4.4c.9,0,1.7.2,2.3.5.6.3,1.1.8,1.5,1.4.3.6.5,1.3.5,2.2s0,1.4-.3,1.9-.5.9-.8,1.3c-.4.3-.8.6-1.3.8l-.9.5h-3.5v-2.4s2.4,0,2.4,0c.3,0,.6,0,.8-.2.2-.2.4-.4.5-.7.1-.3.2-.6.2-1s0-.7-.2-1-.3-.5-.5-.7c-.2-.2-.5-.2-.8-.2h-1.5v11h-2.9v-13.3h0ZM82.8,261.7l-2.4-5.9h3.1l2.5,5.8h0c0,.1-3.1.1-3.1.1h0Z"/>
        <path d="M90.9,248.4v13.3h-2.9v-13.3h2.9ZM95.8,248.4v2.4h-5.8v-2.4h5.8ZM95,253.7v2.3h-5v-2.3h5ZM95.8,259.4v2.4h-5.8v-2.4h5.8Z"/>
        <path d="M107.3,248.4v13.3h-2.9l-3.8-8.3v8.3h-2.8v-13.3h2.8l3.8,8.3v-8.3h2.8,0Z"/>
      </g>
      <g>
        <path d="M4.5,273.8h1.4l.2,5.5v2.8h-1.6v-8.3h0ZM5.1,273.8h1.5l1.7,5.7,1.7-5.7h1.3l-2.4,8.3h-1.3l-2.5-8.3h0ZM10.6,273.8h1.4v8.3h-1.6v-2.8l.2-5.5h0Z"/>
        <path d="M15.5,273.8v8.3h-1.7v-8.3h1.7Z"/>
        <path d="M22.6,273.8v1.4h-5.8v-1.4h5.8ZM20.5,273.8v8.3h-1.7v-8.3h1.7,0Z"/>
        <path d="M29.4,275.3l-1.8,6.8h-1.8l2.6-8.3h1.1v1.5c-.1,0-.1,0-.1,0ZM30.8,279.1v1.4h-3.8v-1.4h3.8ZM30.8,282.2l-1.8-6.8-.2-1.5h1.1l2.6,8.3s-1.8,0-1.8,0Z"/>
        <path d="M39.6,273.8v8.3h-1.6l-2.6-5.2v5.2h-1.6v-8.3h1.6l2.6,5.3v-5.3h1.6,0Z"/>
        <path d="M43,273.8v8.3h-1.7v-8.3h1.7ZM43.5,282.2h-1.5v-1.4h1.5c.4,0,.7,0,.9-.2.2-.1.4-.4.5-.7,0-.3.1-.7.1-1.2v-1.3c0-.4,0-.7,0-1s-.1-.5-.3-.7-.3-.3-.5-.4c-.2,0-.4-.1-.7-.1h-1.5v-1.4h1.5c.5,0,.9,0,1.3.2.4.2.7.4,1,.7.3.3.5.7.7,1.1s.2.9.2,1.5v1.3c0,.6,0,1.1-.2,1.5s-.4.8-.6,1.1c-.3.3-.6.5-1,.7-.4.2-.8.2-1.3.2h0Z"/>
        <path d="M50.1,273.8v8.3h-1.7v-8.3h1.7,0ZM53.2,273.8v1.4h-3.6v-1.4h3.6ZM52.7,277.2v1.4h-3.1v-1.4h3.1ZM53.2,280.8v1.4h-3.6v-1.4h3.6Z"/>
        <path d="M54.6,273.8h2.7c.6,0,1,0,1.4.3.4.2.7.5.9.8s.3.8.3,1.4,0,.8-.2,1.2c-.1.3-.3.6-.5.8-.2.2-.5.4-.8.5l-.5.3h-2.2v-1.4s1.5,0,1.5,0c.2,0,.4,0,.6-.2s.3-.2.3-.4.1-.4.1-.6,0-.5-.1-.7c0-.2-.2-.3-.3-.4-.1,0-.3-.1-.6-.1h-1v6.9h-1.7v-8.3h0ZM58.3,282.2l-1.5-3.7h1.8s1.6,3.6,1.6,3.6h0c0,0-1.8,0-1.8,0h0Z"/>
        <path d="M63.1,273.8v8.3h-1.7v-8.3h1.7ZM66.2,273.8v1.4h-3.6v-1.4h3.6ZM65.7,277.2v1.4h-3.1v-1.4h3.1ZM66.2,280.8v1.4h-3.6v-1.4h3.6Z"/>
        <path d="M73.4,273.8v8.3h-1.6l-2.6-5.2v5.2h-1.6v-8.3h1.6l2.6,5.3v-5.3h1.6,0Z"/>
        <path d="M79.1,273.8l1.6,6.5.3,1.8h-1.2l-2.4-8.3h1.8ZM80.5,280.4l1.6-6.5h1.8l-2.4,8.3h-1.2l.2-1.8Z"/>
        <path d="M86.8,273.8v8.3h-1.7v-8.3h1.7ZM89.9,273.8v1.4h-3.6v-1.4h3.6ZM89.4,277.2v1.4h-3.1v-1.4h3.1ZM89.9,280.8v1.4h-3.6v-1.4h3.6Z"/>
        <path d="M91.3,273.8h2.7c.6,0,1,0,1.4.3.4.2.7.5.9.8s.3.8.3,1.4,0,.8-.2,1.2c-.1.3-.3.6-.5.8-.2.2-.5.4-.8.5l-.5.3h-2.2v-1.4s1.5,0,1.5,0c.2,0,.4,0,.6-.2s.3-.2.3-.4.1-.4.1-.6,0-.5-.1-.7c0-.2-.2-.3-.3-.4-.1,0-.3-.1-.6-.1h-1v6.9h-1.7v-8.3h0ZM95,282.2l-1.5-3.7h1.8s1.6,3.6,1.6,3.6h0c0,0-1.8,0-1.8,0h0Z"/>
        <path d="M99.8,273.8v8.3h-1.7v-8.3h1.7ZM104,273.8l-2.7,4.1-1.7,2.1-.3-1.7,1.1-1.8,1.6-2.7h2ZM102,282.2l-1.8-3.8,1.2-1.1,2.6,4.9h-2,0Z"/>
        <path d="M110.9,273.8v8.3h-1.6l-2.6-5.2v5.2h-1.6v-8.3h1.6l2.6,5.3v-5.3h1.6,0Z"/>
        <path d="M116.4,273.8h1.7v5.7c0,.6-.1,1.2-.4,1.6-.2.4-.6.7-1,.9s-.9.3-1.4.3-1,0-1.4-.3-.7-.5-1-.9c-.2-.4-.3-.9-.3-1.6v-5.7h1.7v5.7c0,.4,0,.6.1.8,0,.2.2.3.4.4s.4.1.6.1.4,0,.6-.1c.2,0,.3-.2.4-.4,0-.2.1-.5.1-.8v-5.7h0ZM113.1,272.6c0-.2,0-.4.2-.5.1-.1.3-.2.6-.2s.4,0,.6.2.2.3.2.5,0,.4-.2.5c-.2.1-.3.2-.6.2s-.4,0-.6-.2c-.1-.1-.2-.3-.2-.5ZM115.9,272.6c0-.2,0-.4.2-.5.1-.1.3-.2.6-.2s.4,0,.6.2c.2.1.2.3.2.5s0,.4-.2.5c-.2.1-.3.2-.6.2s-.4,0-.6-.2c-.1-.1-.2-.3-.2-.5Z"/>
        <path d="M122.6,279.2h-1.7v-1.4h1.7c.2,0,.4,0,.6-.2.1-.1.3-.3.3-.4,0-.2.1-.4.1-.6s0-.5-.1-.7-.2-.4-.3-.5c-.1-.1-.3-.2-.6-.2h-1.2v6.9h-1.7v-8.3h2.8c.6,0,1,.1,1.4.4.4.2.7.6.9,1s.3.9.3,1.4-.1,1-.3,1.4-.5.7-.9.9-.9.3-1.4.3h0Z"/>
        <path d="M128.5,273.8v8.3h-1.7v-8.3h1.7ZM131.4,273.8v1.4h-3.3v-1.4h3.3ZM131.1,277.4v1.4h-3v-1.4h3Z"/>
        <path d="M134.5,273.8v8.3h-1.7v-8.3h1.7ZM137.6,273.8v1.4h-3.6v-1.4h3.6ZM137.1,277.2v1.4h-3.1v-1.4h3.1ZM137.6,280.8v1.4h-3.6v-1.4h3.6Z"/>
        <path d="M144.8,273.8v8.3h-1.6l-2.6-5.2v5.2h-1.6v-8.3h1.6l2.6,5.3v-5.3h1.6,0Z"/>
        <path d="M147.9,280.8v1.1c0,.4-.1.9-.3,1.3-.2.4-.5.8-.8,1.1l-.9-.4c.1-.2.2-.4.3-.5,0-.2.2-.4.2-.6,0-.2,0-.5,0-.7v-1.2h1.4,0Z"/>
        <path d="M5.7,287.9l1.6,6.5.3,1.8h-1.2l-2.4-8.3h1.8ZM7.1,294.5l1.6-6.5h1.8l-2.4,8.3h-1.2l.2-1.8h0Z"/>
        <path d="M13.4,287.9v8.3h-1.7v-8.3h1.7ZM16.5,287.9v1.4h-3.6v-1.4h3.6ZM16,291.3v1.4h-3.1v-1.4h3.1ZM16.5,294.9v1.4h-3.6v-1.4h3.6Z"/>
        <path d="M17.9,287.9h2.7c.6,0,1,0,1.4.3.4.2.7.5.9.8s.3.8.3,1.4,0,.8-.2,1.2c-.1.3-.3.6-.5.8-.2.2-.5.4-.8.5l-.5.3h-2.2v-1.4s1.5,0,1.5,0c.2,0,.4,0,.6-.2s.3-.2.3-.4.1-.4.1-.6,0-.5-.1-.7c0-.2-.2-.3-.3-.4s-.3-.1-.6-.1h-1v6.9h-1.7v-8.3h0ZM21.6,296.2l-1.5-3.7h1.8s1.6,3.6,1.6,3.6h0c0,0-1.8,0-1.8,0h0Z"/>
        <path d="M28.3,294.1c0-.1,0-.3,0-.4s0-.2-.2-.3-.2-.2-.4-.3-.4-.2-.6-.3c-.3-.1-.6-.3-.9-.4s-.6-.3-.8-.5c-.2-.2-.4-.4-.6-.7-.1-.3-.2-.6-.2-.9s0-.7.2-1,.3-.5.5-.7.5-.4.8-.5c.3-.1.7-.2,1.1-.2s1,.1,1.4.3c.4.2.7.5.9.9.2.4.3.8.3,1.3h-1.7c0-.2,0-.4-.1-.6,0-.2-.2-.3-.3-.4-.1-.1-.3-.2-.6-.2s-.4,0-.5.1-.2.2-.3.3c0,.1-.1.3-.1.5s0,.3.1.4c0,.1.2.2.3.3.1,0,.3.2.4.3s.3.2.5.2c.4.1.7.3,1,.5.3.2.5.4.7.6.2.2.3.5.4.7.1.3.1.6.1.9s0,.7-.2.9-.3.5-.5.7c-.2.2-.5.4-.8.5-.3.1-.7.2-1.1.2s-.8,0-1.1-.2c-.3-.1-.6-.3-.9-.5s-.5-.5-.6-.9c-.1-.3-.2-.8-.2-1.2h1.7c0,.3,0,.5,0,.6,0,.2.1.3.2.4s.2.2.4.2c.2,0,.3,0,.5,0s.4,0,.5-.1.2-.2.3-.3c0-.1,0-.3,0-.5h0Z"/>
        <path d="M36.9,287.9v1.4h-5.8v-1.4h5.8ZM34.8,287.9v8.3h-1.7v-8.3h1.7Z"/>
        <path d="M39.9,287.9v8.3h-1.7v-8.3h1.7ZM43,287.9v1.4h-3.6v-1.4h3.6ZM42.5,291.3v1.4h-3.1v-1.4h3.1ZM43,294.9v1.4h-3.6v-1.4h3.6Z"/>
        <path d="M46.1,287.9v8.3h-1.7v-8.3h1.7ZM49,291.3v1.4h-3.4v-1.4h3.4ZM50.2,287.9v8.3h-1.7v-8.3h1.7Z"/>
        <path d="M53.7,287.9v8.3h-1.7v-8.3s1.7,0,1.7,0ZM56.8,287.9v1.4h-3.6v-1.4h3.6ZM56.3,291.3v1.4h-3.1v-1.4h3.1ZM56.8,294.9v1.4h-3.6v-1.4h3.6Z"/>
        <path d="M64,287.9v8.3h-1.6l-2.6-5.2v5.2h-1.6v-8.3h1.6l2.6,5.3v-5.3h1.6,0Z"/>
        <path d="M67.1,294.8v1.1c0,.4-.1.9-.3,1.3-.2.4-.5.8-.8,1.1l-.9-.4c0-.2.2-.4.3-.5,0-.2.2-.4.2-.6,0-.2,0-.5,0-.7v-1.2h1.4,0Z"/>
        <path d="M72.6,287.9l1.6,6.5.3,1.8h-1.2l-2.4-8.3h1.8ZM73.9,294.5l1.6-6.5h1.8l-2.4,8.3h-1.2l.2-1.8h0Z"/>
        <path d="M80.2,287.9v8.3h-1.7v-8.3h1.7ZM83.3,287.9v1.4h-3.6v-1.4h3.6ZM82.8,291.3v1.4h-3.1v-1.4h3.1ZM83.3,294.9v1.4h-3.6v-1.4h3.6Z"/>
        <path d="M84.7,287.9h2.7c.6,0,1,0,1.4.3.4.2.7.5.9.8s.3.8.3,1.4,0,.8-.2,1.2c-.1.3-.3.6-.5.8-.2.2-.5.4-.8.5l-.5.3h-2.2v-1.4s1.5,0,1.5,0c.2,0,.4,0,.6-.2s.3-.2.3-.4.1-.4.1-.6,0-.5-.1-.7c0-.2-.2-.3-.3-.4-.1,0-.3-.1-.6-.1h-1v6.9h-1.7v-8.3h0ZM88.5,296.2l-1.5-3.7h1.8s1.6,3.6,1.6,3.6h0c0,0-1.8,0-1.8,0h0Z"/>
        <path d="M95.1,294.1c0-.1,0-.3,0-.4s0-.2-.2-.3-.2-.2-.4-.3-.4-.2-.6-.3c-.3-.1-.6-.3-.9-.4s-.6-.3-.8-.5c-.2-.2-.4-.4-.6-.7-.1-.3-.2-.6-.2-.9s0-.7.2-1,.3-.5.5-.7.5-.4.8-.5c.3-.1.7-.2,1.1-.2s1,.1,1.4.3c.4.2.7.5.9.9.2.4.3.8.3,1.3h-1.7c0-.2,0-.4-.1-.6,0-.2-.2-.3-.3-.4-.1-.1-.3-.2-.6-.2s-.4,0-.5.1-.2.2-.3.3c0,.1-.1.3-.1.5s0,.3.1.4c0,.1.2.2.3.3.1,0,.3.2.4.3s.3.2.5.2c.4.1.7.3,1,.5.3.2.5.4.7.6.2.2.3.5.4.7,0,.3.1.6.1.9s0,.7-.2.9-.3.5-.5.7c-.2.2-.5.4-.8.5-.3.1-.7.2-1.1.2s-.8,0-1.1-.2c-.3-.1-.6-.3-.9-.5-.3-.2-.5-.5-.6-.9-.1-.3-.2-.8-.2-1.2h1.7c0,.3,0,.5,0,.6,0,.2.1.3.2.4s.2.2.4.2c.2,0,.3,0,.5,0s.4,0,.5-.1.2-.2.3-.3c0-.1,0-.3,0-.5h0Z"/>
        <path d="M102.3,293.5h1.7c0,.6-.1,1.2-.4,1.6-.2.4-.6.8-1,1-.4.2-.9.3-1.5.3s-.9,0-1.2-.2c-.4-.2-.7-.4-.9-.7s-.4-.7-.6-1.1c-.1-.4-.2-1-.2-1.5v-1.4c0-.6,0-1.1.2-1.5.1-.4.3-.8.6-1.1s.6-.5.9-.7c.4-.2.8-.2,1.2-.2s1.1.1,1.5.3.7.6.9,1c.2.4.4,1,.4,1.6h-1.7c0-.4,0-.7-.1-.9s-.2-.4-.4-.5c-.2,0-.4-.1-.7-.1s-.4,0-.6.1-.3.2-.4.4c-.1.2-.2.4-.2.7,0,.3,0,.6,0,1v1.4c0,.4,0,.7,0,1,0,.3.1.5.2.7,0,.2.2.3.4.4.2,0,.4.1.6.1s.5,0,.7-.1.3-.2.4-.5c0-.2.1-.5.1-.9h0Z"/>
        <path d="M107.1,287.9v8.3h-1.7v-8.3h1.7ZM110,291.3v1.4h-3.4v-1.4h3.4ZM111.3,287.9v8.3h-1.7v-8.3h1.7Z"/>
        <path d="M114.8,287.9v8.3h-1.7v-8.3h1.7Z"/>
        <path d="M118.3,287.9v8.3h-1.7v-8.3h1.7ZM121.4,287.9v1.4h-3.6v-1.4h3.6ZM120.9,291.3v1.4h-3.1v-1.4h3.1ZM121.4,294.9v1.4h-3.6v-1.4h3.6Z"/>
        <path d="M124.4,287.9v8.3h-1.7v-8.3h1.7ZM124.9,296.2h-1.5v-1.4h1.5c.4,0,.7,0,.9-.2.2-.1.4-.4.5-.7,0-.3.1-.7.1-1.2v-1.3c0-.4,0-.7,0-1s-.1-.5-.3-.7-.3-.3-.5-.4c-.2,0-.4-.1-.7-.1h-1.5v-1.4h1.5c.5,0,.9,0,1.3.2.4.2.7.4,1,.7.3.3.5.7.7,1.1s.2.9.2,1.5v1.3c0,.6,0,1.1-.2,1.5s-.4.8-.6,1.1c-.3.3-.6.5-1,.7-.4.2-.8.2-1.3.2h0Z"/>
        <path d="M131.5,287.9v8.3h-1.7v-8.3h1.7ZM134.6,287.9v1.4h-3.6v-1.4h3.6ZM134.1,291.3v1.4h-3.1v-1.4h3.1ZM134.6,294.9v1.4h-3.6v-1.4h3.6Z"/>
        <path d="M141.8,287.9v8.3h-1.6l-2.6-5.2v5.2h-1.6v-8.3h1.6l2.6,5.3v-5.3h1.6,0Z"/>
        <path d="M145.2,287.9v8.3h-1.7v-8.3h1.7ZM148.3,287.9v1.4h-3.6v-1.4h3.6ZM147.9,291.3v1.4h-3.1v-1.4h3.1ZM148.3,294.9v1.4h-3.6v-1.4h3.6Z"/>
        <path d="M7.3,307.4h-1.7v-1.4h1.7c.2,0,.4,0,.6-.2.1-.1.3-.3.3-.4,0-.2.1-.4.1-.6s0-.5-.1-.7c0-.2-.2-.4-.3-.5-.1-.1-.3-.2-.6-.2h-1.2v6.9h-1.7v-8.3h2.8c.6,0,1,.1,1.4.4.4.2.7.6.9,1s.3.9.3,1.4-.1,1-.3,1.4c-.2.4-.5.7-.9.9s-.9.3-1.4.3h0Z"/>
        <path d="M13.2,302v8.3h-1.7v-8.3h1.7ZM16.3,302v1.4h-3.6v-1.4h3.6ZM15.9,305.3v1.4h-3.1v-1.4h3.1ZM16.4,308.9v1.4h-3.6v-1.4h3.6Z"/>
        <path d="M17.7,302h2.7c.6,0,1,0,1.4.3.4.2.7.5.9.8s.3.8.3,1.4,0,.8-.2,1.2-.3.6-.5.8c-.2.2-.5.4-.8.5l-.5.3h-2.2v-1.4s1.5,0,1.5,0c.2,0,.4,0,.6-.2.1-.1.3-.2.3-.4s.1-.4.1-.6,0-.5-.1-.7c0-.2-.2-.3-.3-.4-.1-.1-.3-.1-.6-.1h-1v6.9h-1.7v-8.3h0ZM21.5,310.3l-1.5-3.7h1.8s1.6,3.6,1.6,3.6h0c0,0-1.8,0-1.8,0h0Z"/>
        <path d="M28.2,308.1c0-.1,0-.3,0-.4s0-.2-.2-.3c0-.1-.2-.2-.4-.3-.2-.1-.4-.2-.6-.3-.3-.1-.6-.3-.9-.4-.3-.1-.6-.3-.8-.5-.2-.2-.4-.4-.6-.7-.1-.3-.2-.6-.2-.9s0-.7.2-1,.3-.5.5-.7c.2-.2.5-.4.8-.5.3-.1.7-.2,1.1-.2s1,.1,1.4.3c.4.2.7.5.9.9.2.4.3.8.3,1.3h-1.7c0-.2,0-.4-.1-.6,0-.2-.2-.3-.3-.4-.1-.1-.3-.2-.6-.2s-.4,0-.5.1-.2.2-.3.3c0,.1-.1.3-.1.5s0,.3.1.4c0,.1.2.2.3.3s.3.2.4.3.3.2.5.2c.4.1.7.3,1,.5.3.2.5.4.7.6.2.2.3.5.4.7.1.3.1.6.1.9s0,.7-.2.9c-.1.3-.3.5-.5.7-.2.2-.5.4-.8.5-.3.1-.7.2-1.1.2s-.8,0-1.1-.2c-.3-.1-.6-.3-.9-.5-.3-.2-.5-.5-.6-.9-.1-.3-.2-.8-.2-1.2h1.7c0,.3,0,.5,0,.6s.1.3.2.4c.1.1.2.2.4.2.2,0,.3,0,.5,0s.4,0,.5-.1.2-.2.3-.3c0-.1,0-.3,0-.5h0Z"/>
        <path d="M34.2,307.4h-1.7v-1.4h1.7c.2,0,.4,0,.6-.2.1-.1.3-.3.3-.4,0-.2.1-.4.1-.6s0-.5-.1-.7c0-.2-.2-.4-.3-.5-.1-.1-.3-.2-.6-.2h-1.2v6.9h-1.7v-8.3h2.8c.6,0,1,.1,1.4.4.4.2.7.6.9,1s.3.9.3,1.4-.1,1-.3,1.4c-.2.4-.5.7-.9.9s-.9.3-1.4.3h0Z"/>
        <path d="M40.1,302v8.3h-1.7v-8.3h1.7ZM43.2,302v1.4h-3.6v-1.4h3.6ZM42.7,305.3v1.4h-3.1v-1.4h3.1ZM43.2,308.9v1.4h-3.6v-1.4h3.6Z"/>
        <path d="M46.3,302v8.3h-1.7v-8.3h1.7,0ZM50.4,302l-2.7,4.1-1.7,2.1-.3-1.7,1.1-1.8,1.6-2.7h2,0ZM48.5,310.3l-1.8-3.8,1.2-1.1,2.6,4.9h-2,0Z"/>
        <path d="M56.9,302v1.4h-5.8v-1.4h5.8ZM54.8,302v8.3h-1.7v-8.3h1.7Z"/>
        <path d="M60,302v8.3h-1.7v-8.3h1.7Z"/>
        <path d="M63.1,302l1.6,6.5.3,1.8h-1.2l-2.4-8.3h1.8,0ZM64.4,308.5l1.6-6.5h1.8l-2.4,8.3h-1.2l.2-1.8Z"/>
        <path d="M70.7,302v8.3h-1.7v-8.3h1.7ZM73.8,302v1.4h-3.6v-1.4h3.6ZM73.3,305.3v1.4h-3.1v-1.4h3.1ZM73.8,308.9v1.4h-3.6v-1.4h3.6Z"/>
        <path d="M81,302v8.3h-1.6l-2.6-5.2v5.2h-1.6v-8.3h1.6l2.6,5.3v-5.3h1.6,0Z"/>
        <path d="M87.2,302v8.3h-1.7v-8.3h1.7ZM90.1,302v1.4h-3.3v-1.4h3.3ZM89.8,305.5v1.4h-3v-1.4h3Z"/>
        <path d="M93.2,302v8.3h-1.7v-8.3h1.7Z"/>
        <path d="M100.9,302v8.3h-1.6l-2.6-5.2v5.2h-1.6v-8.3h1.6l2.6,5.3v-5.3h1.6,0Z"/>
        <path d="M104.3,302v8.3h-1.7v-8.3h1.7ZM104.8,310.3h-1.5v-1.4h1.5c.4,0,.7,0,.9-.2.2-.1.4-.4.5-.7,0-.3.1-.7.1-1.2v-1.3c0-.4,0-.7,0-1,0-.3-.1-.5-.3-.7-.1-.2-.3-.3-.5-.4-.2,0-.4-.1-.7-.1h-1.5v-1.4h1.5c.5,0,.9,0,1.3.2.4.2.7.4,1,.7s.5.7.7,1.1.2.9.2,1.5v1.3c0,.6,0,1.1-.2,1.5-.2.4-.4.8-.6,1.1-.3.3-.6.5-1,.7-.4.2-.8.2-1.3.2h0Z"/>
        <path d="M111.4,302v8.3h-1.7v-8.3h1.7ZM114.5,302v1.4h-3.6v-1.4h3.6ZM114,305.3v1.4h-3.1v-1.4h3.1ZM114.5,308.9v1.4h-3.6v-1.4h3.6Z"/>
        <path d="M121.7,302v8.3h-1.6l-2.6-5.2v5.2h-1.6v-8.3h1.6l2.6,5.3v-5.3h1.6,0Z"/>
        <path d="M123.3,309.5c0-.3,0-.5.3-.6s.4-.3.7-.3.5,0,.7.3.3.4.3.6,0,.5-.3.6-.4.3-.7.3-.5,0-.7-.3-.3-.4-.3-.6Z"/>
      </g>
      <g>
        <path d="M7.4,418.9v13.3h-2.9v-13.3h2.9ZM14.1,418.9l-4.3,6.7-2.6,3.3-.6-2.8,1.6-2.9,2.2-4.3h3.6ZM10.6,432.2l-2.7-6.1,2.2-1.8,3.9,7.9h-3.4Z"/>
        <path d="M24.8,424.5v2.1c0,.9-.1,1.8-.3,2.5-.2.7-.6,1.3-1,1.8-.4.5-.9.8-1.5,1.1-.6.2-1.3.4-2,.4s-1.4-.1-2-.4c-.6-.2-1.1-.6-1.5-1.1s-.8-1.1-1-1.8c-.2-.7-.4-1.5-.4-2.5v-2.1c0-1,.1-1.8.3-2.5.2-.7.6-1.3,1-1.8s.9-.9,1.5-1.1c.6-.3,1.3-.4,2-.4s1.4.1,2,.4c.6.2,1.1.6,1.5,1.1s.8,1.1,1,1.8.4,1.6.4,2.5ZM21.9,426.7v-2.1c0-.6,0-1.1-.1-1.6s-.2-.8-.4-1.1c-.2-.3-.4-.5-.6-.6s-.5-.2-.8-.2-.6,0-.9.2c-.2.1-.4.3-.6.6-.2.3-.3.6-.4,1.1s-.1,1-.1,1.6v2.1c0,.6,0,1.1.1,1.5,0,.4.2.8.4,1s.4.5.6.6c.2.1.5.2.9.2s.6,0,.8-.2c.2-.1.4-.3.6-.6.2-.3.3-.6.4-1,0-.4.1-.9.1-1.5Z"/>
        <path d="M27.3,418.9h2.4l.4,9.5v3.9h-2.9v-13.3ZM28.5,418.9h2.4l2.4,9.2,2.4-9.2h2.3l-3.7,13.3h-2.1l-3.8-13.3h0ZM37.1,418.9h2.5v13.3h-2.9v-3.9l.4-9.5Z"/>
        <path d="M42.2,418.9h2.4l.4,9.5v3.9h-2.9v-13.3ZM43.4,418.9h2.4l2.4,9.2,2.4-9.2h2.3l-3.7,13.3h-2.1l-3.8-13.3h0ZM52,418.9h2.5v13.3h-2.9v-3.9s.4-9.5.4-9.5Z"/>
        <path d="M63,418.9h2.9v9.1c0,1-.2,1.9-.6,2.5s-.9,1.1-1.6,1.4c-.7.3-1.4.5-2.3.5s-1.7-.2-2.3-.5c-.7-.3-1.2-.8-1.6-1.4-.4-.6-.6-1.5-.6-2.5v-9.1h2.9v9.1c0,.6,0,1,.2,1.3s.3.5.5.6c.2.1.5.2.9.2s.6,0,.9-.2c.2-.1.4-.3.5-.6s.2-.7.2-1.3v-9.1h0Z"/>
        <path d="M78,418.9v13.3h-2.9l-3.8-8.3v8.3h-2.8v-13.3h2.8l3.8,8.3v-8.3h2.8,0Z"/>
        <path d="M83.6,418.9v13.3h-2.9v-13.3h2.9Z"/>
        <path d="M93.8,418.9v2.4h-7.8v-2.4h7.8ZM94.8,420.5l-6.6,11.7h-2.1v-1.7l6.7-11.7h2v1.6h0ZM94.9,429.9v2.4h-8v-2.4h8Z"/>
        <path d="M100.1,418.9v13.3h-2.9v-13.3h2.9Z"/>
        <path d="M105.8,418.9v13.3h-2.9v-13.3h2.9ZM110.6,418.9v2.4h-5.8v-2.4h5.8ZM109.9,424.2v2.3h-5v-2.3h5ZM110.6,429.9v2.4h-5.8v-2.4h5.8Z"/>
        <path d="M112.7,418.9h4.4c.9,0,1.7.2,2.3.5.6.3,1.1.8,1.5,1.4.3.6.5,1.3.5,2.2s0,1.4-.3,1.9c-.2.5-.5.9-.8,1.3-.4.3-.8.6-1.3.8l-.9.5h-3.5v-2.4s2.4,0,2.4,0c.3,0,.6,0,.8-.2.2-.2.4-.4.5-.7.1-.3.2-.6.2-1s0-.7-.2-1-.3-.5-.5-.7-.5-.2-.8-.2h-1.5v11h-2.9v-13.3h0ZM118.7,432.2l-2.4-5.9h3.1l2.5,5.8h0c0,.1-3.1.1-3.1.1h0Z"/>
        <path d="M126.8,418.9v13.3h-2.9v-13.3h2.9ZM131.6,418.9v2.4h-5.8v-2.4h5.8ZM130.9,424.2v2.3h-5v-2.3h5ZM131.6,429.9v2.4h-5.8v-2.4h5.8Z"/>
        <path d="M143.2,418.9v13.3h-2.9l-3.8-8.3v8.3h-2.8v-13.3h2.8l3.8,8.3v-8.3h2.8,0Z"/>
      </g>
      <g>
        <path d="M4.9,444.4h1.4l.2,5.5v2.8h-1.6v-8.3ZM5.5,444.4h1.5l1.7,5.7,1.7-5.7h1.3l-2.4,8.3h-1.3s-2.5-8.3-2.5-8.3ZM11,444.4h1.4v8.3h-1.6v-2.8l.2-5.5Z"/>
        <path d="M15.9,444.4v8.3h-1.7v-8.3h1.7ZM19,444.4v1.4h-3.6v-1.4h3.6ZM18.5,447.8v1.4h-3.1v-1.4h3.1ZM19,451.4v1.4h-3.6v-1.4h3.6Z"/>
        <path d="M26.2,444.4v8.3h-1.6l-2.6-5.2v5.2h-1.6v-8.3h1.6l2.6,5.3v-5.3h1.6,0Z"/>
        <path d="M31.5,450.6c0-.1,0-.3,0-.4s0-.2-.2-.3c0-.1-.2-.2-.4-.3-.2-.1-.4-.2-.6-.3-.3-.1-.6-.3-.9-.4-.3-.1-.6-.3-.8-.5-.2-.2-.4-.4-.6-.7-.1-.3-.2-.6-.2-.9s0-.7.2-1,.3-.5.5-.7.5-.4.8-.5c.3-.1.7-.2,1.1-.2s1,.1,1.4.3c.4.2.7.5.9.9.2.4.3.8.3,1.3h-1.7c0-.2,0-.4-.1-.6,0-.2-.2-.3-.3-.4-.1-.1-.3-.2-.6-.2s-.4,0-.5.1-.2.2-.3.3c0,.1-.1.3-.1.5s0,.3.1.4c0,.1.2.2.3.3s.3.2.4.3.3.2.5.2c.4.1.7.3,1,.5.3.2.5.4.7.6.2.2.3.5.4.7,0,.3.1.6.1.9s0,.7-.2.9c-.1.3-.3.5-.5.7-.2.2-.5.4-.8.5-.3.1-.7.2-1.1.2s-.8,0-1.1-.2c-.3-.1-.6-.3-.9-.5-.3-.2-.5-.5-.6-.9-.1-.3-.2-.8-.2-1.2h1.7c0,.3,0,.5,0,.6s.1.3.2.4c.1.1.2.2.4.2.2,0,.3,0,.5,0s.4,0,.5-.1.2-.2.3-.3c0-.1,0-.3,0-.5h0Z"/>
        <path d="M38.7,450h1.7c0,.6-.1,1.2-.4,1.6-.2.4-.6.8-1,1-.4.2-.9.3-1.5.3s-.9,0-1.2-.2c-.4-.2-.7-.4-.9-.7-.3-.3-.4-.7-.6-1.1-.1-.4-.2-1-.2-1.5v-1.4c0-.6,0-1.1.2-1.5.1-.4.3-.8.6-1.1s.6-.5.9-.7c.4-.2.8-.2,1.2-.2s1.1.1,1.5.3c.4.2.7.6.9,1,.2.4.4,1,.4,1.6h-1.7c0-.4,0-.7-.1-.9,0-.2-.2-.4-.4-.5s-.4-.1-.7-.1-.4,0-.6.1c-.2,0-.3.2-.4.4-.1.2-.2.4-.2.7s0,.6,0,1v1.4c0,.4,0,.7,0,1,0,.3.1.5.2.7,0,.2.2.3.4.4s.4.1.6.1.5,0,.7-.1.3-.2.4-.5.1-.5.1-.9h0Z"/>
        <path d="M43.5,444.4v8.3h-1.7v-8.3h1.7ZM46.4,447.8v1.4h-3.4v-1.4h3.4ZM47.6,444.4v8.3h-1.7v-8.3h1.7Z"/>
        <path d="M51.1,444.4v8.3h-1.7v-8.3s1.7,0,1.7,0ZM54.2,444.4v1.4h-3.6v-1.4h3.6ZM53.7,447.8v1.4h-3.1v-1.4h3.1ZM54.2,451.4v1.4h-3.6v-1.4h3.6Z"/>
        <path d="M61.4,444.4v8.3h-1.6l-2.6-5.2v5.2h-1.6v-8.3h1.6l2.6,5.3v-5.3h1.6,0Z"/>
        <path d="M67.5,444.4v8.3h-1.7v-8.3h1.7ZM70.6,444.4v1.4h-3.6v-1.4h3.6ZM70.2,447.8v1.4h-3.1v-1.4h3.1ZM70.6,451.4v1.4h-3.6v-1.4h3.6Z"/>
        <path d="M72,444.4h2.7c.6,0,1,0,1.4.3.4.2.7.5.9.8s.3.8.3,1.4,0,.8-.2,1.2-.3.6-.5.8c-.2.2-.5.4-.8.5l-.5.3h-2.2v-1.4s1.5,0,1.5,0c.2,0,.4,0,.6-.2.2-.1.3-.2.3-.4s.1-.4.1-.6,0-.5-.1-.7c0-.2-.2-.3-.3-.4-.1,0-.3-.1-.6-.1h-1v6.9h-1.7v-8.3h0ZM75.8,452.8l-1.5-3.7h1.8s1.6,3.6,1.6,3.6h0c0,0-1.8,0-1.8,0Z"/>
        <path d="M78.9,444.4h2.7c.6,0,1,0,1.4.3.4.2.7.5.9.8s.3.8.3,1.4,0,.8-.2,1.2-.3.6-.5.8c-.2.2-.5.4-.8.5l-.5.3h-2.2v-1.4s1.5,0,1.5,0c.2,0,.4,0,.6-.2.2-.1.3-.2.3-.4s.1-.4.1-.6,0-.5-.1-.7c0-.2-.2-.3-.3-.4-.1,0-.3-.1-.6-.1h-1v6.9h-1.7v-8.3h0ZM82.7,452.8l-1.5-3.7h1.8s1.6,3.6,1.6,3.6h0c0,0-1.8,0-1.8,0Z"/>
        <path d="M87.5,444.4v8.3h-1.7v-8.3h1.7ZM90.6,444.4v1.4h-3.6v-1.4h3.6ZM90.1,447.8v1.4h-3.1v-1.4h3.1ZM90.6,451.4v1.4h-3.6v-1.4h3.6Z"/>
        <path d="M93.7,444.4v8.3h-1.7v-8.3h1.7Z"/>
        <path d="M99.5,450h1.7c0,.6-.1,1.2-.4,1.6-.2.4-.6.8-1,1-.4.2-.9.3-1.5.3s-.9,0-1.2-.2c-.4-.2-.7-.4-.9-.7-.3-.3-.4-.7-.6-1.1-.1-.4-.2-1-.2-1.5v-1.4c0-.6,0-1.1.2-1.5.1-.4.3-.8.6-1.1s.6-.5.9-.7c.4-.2.8-.2,1.2-.2s1.1.1,1.5.3c.4.2.7.6.9,1,.2.4.4,1,.4,1.6h-1.7c0-.4,0-.7-.1-.9,0-.2-.2-.4-.4-.5s-.4-.1-.7-.1-.4,0-.6.1c-.2,0-.3.2-.4.4-.1.2-.2.4-.2.7s0,.6,0,1v1.4c0,.4,0,.7,0,1,0,.3.1.5.2.7,0,.2.2.3.4.4s.4.1.6.1.5,0,.7-.1.3-.2.4-.5.1-.5.1-.9h0Z"/>
        <path d="M104.3,444.4v8.3h-1.7v-8.3h1.7ZM107.3,447.8v1.4h-3.4v-1.4h3.4ZM108.5,444.4v8.3h-1.7v-8.3h1.7Z"/>
        <path d="M111.9,444.4v8.3h-1.7v-8.3h1.7ZM115,444.4v1.4h-3.6v-1.4h3.6ZM114.5,447.8v1.4h-3.1v-1.4h3.1ZM115,451.4v1.4h-3.6v-1.4h3.6Z"/>
        <path d="M122.2,444.4v8.3h-1.6l-2.6-5.2v5.2h-1.6v-8.3h1.6l2.6,5.3v-5.3h1.6,0Z"/>
        <path d="M125.3,451.4v1.1c0,.4-.1.9-.3,1.3-.2.4-.5.8-.8,1.1l-.9-.4c0-.2.2-.4.3-.5s.2-.4.2-.6,0-.5,0-.7v-1.2h1.4,0Z"/>
        <path d="M6.2,458.5l1.6,6.5.3,1.8h-1.2l-2.4-8.3h1.8ZM7.5,465.1l1.6-6.5h1.8l-2.4,8.3h-1.2s.2-1.8.2-1.8Z"/>
        <path d="M13.8,458.5v8.3h-1.7v-8.3h1.7ZM16.9,458.5v1.4h-3.6v-1.4h3.6ZM16.4,461.9v1.4h-3.1v-1.4h3.1ZM16.9,465.4v1.4h-3.6v-1.4h3.6Z"/>
        <path d="M18.3,458.5h2.7c.6,0,1,0,1.4.3.4.2.7.5.9.8s.3.8.3,1.4,0,.8-.2,1.2-.3.6-.5.8c-.2.2-.5.4-.8.5l-.5.3h-2.2v-1.4s1.5,0,1.5,0c.2,0,.4,0,.6-.2.1-.1.3-.2.3-.4s.1-.4.1-.6,0-.5-.1-.7c0-.2-.2-.3-.3-.4-.1,0-.3-.1-.6-.1h-1v6.9h-1.7v-8.3h0ZM22,466.8l-1.5-3.7h1.8s1.6,3.6,1.6,3.6h0c0,0-1.8,0-1.8,0Z"/>
        <path d="M26.8,458.5v8.3h-1.7v-8.3h1.7ZM29.9,458.5v1.4h-3.6v-1.4h3.6ZM29.4,461.9v1.4h-3.1v-1.4s3.1,0,3.1,0ZM29.9,465.4v1.4h-3.6v-1.4h3.6Z"/>
        <path d="M33.1,458.5v8.3h-1.7v-8.3h1.7Z"/>
        <path d="M40.7,458.5v8.3h-1.6l-2.6-5.2v5.2h-1.6v-8.3h1.6l2.6,5.3v-5.3h1.6,0Z"/>
        <path d="M44.2,458.5v8.3h-1.7v-8.3s1.7,0,1.7,0ZM47.1,458.5v1.4h-3.3v-1.4h3.3ZM46.8,462v1.4h-3v-1.4h3Z"/>
        <path d="M50.4,460l-1.8,6.8h-1.8l2.6-8.3h1.1v1.5c-.1,0-.1,0-.1,0ZM51.9,463.7v1.4h-3.8v-1.4h3.8ZM51.8,466.8l-1.8-6.8-.2-1.5h1.1l2.6,8.3h-1.8Z"/>
        <path d="M58.6,464.1h1.7c0,.6-.1,1.2-.4,1.6-.2.4-.6.8-1,1-.4.2-.9.3-1.5.3s-.9,0-1.2-.2c-.4-.2-.7-.4-.9-.7-.3-.3-.4-.7-.6-1.1-.1-.4-.2-1-.2-1.5v-1.4c0-.6,0-1.1.2-1.5.1-.4.3-.8.6-1.1s.6-.5.9-.7c.4-.2.8-.2,1.2-.2s1.1.1,1.5.3c.4.2.7.6.9,1,.2.4.4,1,.4,1.6h-1.7c0-.4,0-.7-.1-.9,0-.2-.2-.4-.4-.5s-.4-.1-.7-.1-.4,0-.6.1c-.2,0-.3.2-.4.4-.1.2-.2.4-.2.7s0,.6,0,1v1.4c0,.4,0,.7,0,1,0,.3.1.5.2.7,0,.2.2.3.4.4s.4.1.6.1.5,0,.7-.1.3-.2.4-.5.1-.5.1-.9h0Z"/>
        <path d="M63.4,458.5v8.3h-1.7v-8.3h1.7ZM66.4,461.9v1.4h-3.4v-1.4h3.4ZM67.6,458.5v8.3h-1.7v-8.3h1.7Z"/>
        <path d="M71,458.5v8.3h-1.7v-8.3h1.7ZM74.1,458.5v1.4h-3.6v-1.4h3.6ZM73.7,461.9v1.4h-3.1v-1.4h3.1ZM74.2,465.4v1.4h-3.6v-1.4h3.6Z"/>
        <path d="M81.4,458.5v8.3h-1.6l-2.6-5.2v5.2h-1.6v-8.3h1.6l2.6,5.3v-5.3h1.6,0Z"/>
        <path d="M84.4,465.4v1.1c0,.4-.1.9-.3,1.3-.2.4-.5.8-.8,1.1l-.9-.4c0-.2.2-.4.3-.5s.2-.4.2-.6,0-.5,0-.7v-1.2h1.4,0Z"/>
        <path d="M92.2,464.6c0-.1,0-.3,0-.4s0-.2-.2-.3c0-.1-.2-.2-.4-.3-.2-.1-.4-.2-.6-.3-.3-.1-.6-.3-.9-.4-.3-.1-.6-.3-.8-.5-.2-.2-.4-.4-.6-.7-.1-.3-.2-.6-.2-.9s0-.7.2-1,.3-.5.5-.7.5-.4.8-.5c.3-.1.7-.2,1.1-.2s1,.1,1.4.3c.4.2.7.5.9.9.2.4.3.8.3,1.3h-1.7c0-.2,0-.4-.1-.6,0-.2-.2-.3-.3-.4-.1-.1-.3-.2-.6-.2s-.4,0-.5.1-.2.2-.3.3c0,.1-.1.3-.1.5s0,.3.1.4c0,.1.2.2.3.3s.3.2.4.3.3.2.5.2c.4.1.7.3,1,.5.3.2.5.4.7.6.2.2.3.5.4.7,0,.3.1.6.1.9s0,.7-.2.9c-.1.3-.3.5-.5.7-.2.2-.5.4-.8.5-.3.1-.7.2-1.1.2s-.8,0-1.1-.2c-.3-.1-.6-.3-.9-.5-.3-.2-.5-.5-.6-.9-.1-.3-.2-.8-.2-1.2h1.7c0,.3,0,.5,0,.6s.1.3.2.4c.1.1.2.2.4.2.2,0,.3,0,.5,0s.4,0,.5-.1.2-.2.3-.3c0-.1,0-.3,0-.5h0Z"/>
        <path d="M100.8,458.5v1.4h-5.8v-1.4h5.8ZM98.8,458.5v8.3h-1.7v-8.3h1.7Z"/>
        <path d="M103.9,458.5v8.3h-1.7v-8.3h1.7Z"/>
        <path d="M105.8,458.5h1.4l.2,5.5v2.8h-1.6v-8.3ZM106.4,458.5h1.5l1.7,5.7,1.7-5.7h1.3l-2.4,8.3h-1.3s-2.5-8.3-2.5-8.3ZM111.9,458.5h1.4v8.3h-1.6v-2.8l.2-5.5Z"/>
        <path d="M115.1,458.5h1.4l.2,5.5v2.8h-1.6v-8.3ZM115.7,458.5h1.5l1.7,5.7,1.7-5.7h1.3l-2.4,8.3h-1.3s-2.5-8.3-2.5-8.3ZM121.2,458.5h1.4v8.3h-1.6v-2.8l.2-5.5Z"/>
        <path d="M126.1,458.5v8.3h-1.7v-8.3h1.7ZM129.2,458.5v1.4h-3.6v-1.4h3.6ZM128.7,461.9v1.4h-3.1v-1.4h3.1ZM129.2,465.4v1.4h-3.6v-1.4h3.6Z"/>
        <path d="M136.4,458.5v8.3h-1.6l-2.6-5.2v5.2h-1.6v-8.3h1.6l2.6,5.3v-5.3h1.6,0Z"/>
        <path d="M6.2,472.6l1.6,6.5.3,1.8h-1.2l-2.4-8.3h1.8ZM7.5,479.1l1.6-6.5h1.8l-2.4,8.3h-1.2s.2-1.8.2-1.8Z"/>
        <path d="M13.8,472.6v8.3h-1.7v-8.3h1.7ZM16.9,472.6v1.4h-3.6v-1.4h3.6ZM16.4,475.9v1.4h-3.1v-1.4h3.1ZM16.9,479.5v1.4h-3.6v-1.4h3.6Z"/>
        <path d="M18.3,472.6h2.7c.6,0,1,0,1.4.3.4.2.7.5.9.8s.3.8.3,1.4,0,.8-.2,1.2-.3.6-.5.8c-.2.2-.5.4-.8.5l-.5.3h-2.2v-1.4s1.5,0,1.5,0c.2,0,.4,0,.6-.2.1-.1.3-.2.3-.4s.1-.4.1-.6,0-.5-.1-.7c0-.2-.2-.3-.3-.4-.1,0-.3-.1-.6-.1h-1v6.9h-1.7v-8.3h0ZM22,480.9l-1.5-3.7h1.8s1.6,3.6,1.6,3.6h0c0,0-1.8,0-1.8,0Z"/>
        <path d="M28.7,478.7c0-.1,0-.3,0-.4s0-.2-.2-.3c0-.1-.2-.2-.4-.3-.2-.1-.4-.2-.6-.3-.3-.1-.6-.3-.9-.4-.3-.1-.6-.3-.8-.5-.2-.2-.4-.4-.6-.7-.1-.3-.2-.6-.2-.9s0-.7.2-1,.3-.5.5-.7.5-.4.8-.5c.3-.1.7-.2,1.1-.2s1,.1,1.4.3c.4.2.7.5.9.9.2.4.3.8.3,1.3h-1.7c0-.2,0-.4-.1-.6,0-.2-.2-.3-.3-.4-.1-.1-.3-.2-.6-.2s-.4,0-.5.1-.2.2-.3.3c0,.1-.1.3-.1.5s0,.3.1.4c0,.1.2.2.3.3s.3.2.4.3.3.2.5.2c.4.1.7.3,1,.5.3.2.5.4.7.6.2.2.3.5.4.7.1.3.1.6.1.9s0,.7-.2.9c-.1.3-.3.5-.5.7-.2.2-.5.4-.8.5-.3.1-.7.2-1.1.2s-.8,0-1.1-.2c-.3-.1-.6-.3-.9-.5-.3-.2-.5-.5-.6-.9-.1-.3-.2-.8-.2-1.2h1.7c0,.3,0,.5,0,.6s.1.3.2.4c.1.1.2.2.4.2.2,0,.3,0,.5,0s.4,0,.5-.1.2-.2.3-.3c0-.1,0-.3,0-.5h0Z"/>
        <path d="M37.3,472.6v1.4h-5.8v-1.4h5.8ZM35.2,472.6v8.3h-1.7v-8.3h1.7Z"/>
        <path d="M41,474.1l-1.8,6.8h-1.8l2.6-8.3h1.1v1.5c-.1,0-.1,0-.1,0ZM38.6,471.3c0-.2,0-.4.2-.5.1-.1.3-.2.6-.2s.4,0,.6.2c.2.1.2.3.2.5s0,.4-.2.5-.3.2-.6.2-.4,0-.6-.2c-.1-.1-.2-.3-.2-.5ZM42.5,477.8v1.4h-3.8v-1.4h3.8ZM42.4,480.9l-1.8-6.8-.2-1.5h1.1l2.6,8.3h-1.8ZM41.4,471.3c0-.2,0-.4.2-.5.1-.1.3-.2.6-.2s.4,0,.6.2c.2.1.2.3.2.5s0,.4-.2.5-.3.2-.6.2-.4,0-.6-.2c-.1-.1-.2-.3-.2-.5Z"/>
        <path d="M45.4,472.6h2.7c.6,0,1,0,1.4.3.4.2.7.5.9.8s.3.8.3,1.4,0,.8-.2,1.2-.3.6-.5.8c-.2.2-.5.4-.8.5l-.5.3h-2.2v-1.4s1.5,0,1.5,0c.2,0,.4,0,.6-.2.2-.1.3-.2.3-.4s.1-.4.1-.6,0-.5-.1-.7c0-.2-.2-.3-.3-.4-.1,0-.3-.1-.6-.1h-1v6.9h-1.7v-8.3h0ZM49.2,480.9l-1.5-3.7h1.8s1.6,3.6,1.6,3.6h0c0,0-1.8,0-1.8,0Z"/>
        <path d="M54,472.6v8.3h-1.7v-8.3s1.7,0,1.7,0ZM58.1,472.6l-2.7,4.1-1.7,2.1-.3-1.7,1.1-1.8,1.6-2.7h2,0ZM56.2,480.9l-1.8-3.8,1.2-1.1,2.6,4.9h-2,0Z"/>
        <path d="M60.9,472.6v8.3h-1.7v-8.3s1.7,0,1.7,0ZM64,472.6v1.4h-3.6v-1.4h3.6ZM63.5,475.9v1.4h-3.1v-1.4h3.1ZM64,479.5v1.4h-3.6v-1.4h3.6Z"/>
        <path d="M71.2,472.6v8.3h-1.6l-2.6-5.2v5.2h-1.6v-8.3h1.6l2.6,5.3v-5.3h1.6,0Z"/>
        <path d="M72.8,480.1c0-.3,0-.5.3-.6s.4-.3.7-.3.5,0,.7.3.3.4.3.6,0,.5-.3.6-.4.3-.7.3-.5,0-.7-.3-.3-.4-.3-.6Z"/>
      </g>
      <g>
        <circle class="st4" cx="32.1" cy="32.1" r="30.7"/>
        <g id="d">
          <circle class="st3" cx="36.4" cy="24.1" r="10.9"/>
          <circle class="st2" cx="36.4" cy="24.1" r="8.3"/>
          <path class="st3" d="M27,34.9l3.3,2.1-7.8,12.3c-.6.9-1.8,1.1-2.7.5h0c-.9-.6-1.2-1.8-.6-2.6,0,0,7.8-12.3,7.8-12.3Z"/>
        </g>
      </g>
      <g>
        <circle class="st5" cx="32.1" cy="196.4" r="29.5"/>
        <g id="e">
          <path class="st1" d="M26.1,185.4c3.2-12.1,24-8.1,16.2,11.2-10,24.6-21.9,17.2-19.8,9.2"/>
          <path class="st1" d="M32.2,191.2c3.1,4.8,5.1,9.3,1,11.2-1,.4-2,.3-3,.8-1.1.5-1.3.9-2.5,2.3-1.8,1.4-4-1.1-2.7-2.5,2.1-2.3,4.4-2.7,3.2-5-.8-1.5-.3-3.6,2.4-2.9"/>
          <path class="st1" d="M28.5,188.4c2.7-10.9,17.1-7.1,10.5,7.6"/>
        </g>
      </g>
      <g>
        <circle class="st5" cx="33.1" cy="374.6" r="29.5"/>
        <g id="f">
          <path class="st0" d="M21,366.8s15.5.8,25-5.7"/>
          <path class="st0" d="M21,378.6s15.5-.8,25,5.7"/>
          <path class="st0" d="M16.8,366.8h4.2v11.7h-4.2c-.7,0-1.3-.6-1.3-1.3v-9.2c0-.7.6-1.3,1.3-1.3h0Z"/>
          <rect class="st0" x="46" y="360.1" width="3.8" height="25" rx="1.3" ry="1.3"/>
          <path class="st0" d="M21,378.6l.5,2.9h-.9l1,5.2h.3l.2,1.3h-3.4s-1.8-9.4-1.8-9.4"/>
          <path class="st0" d="M21,366.8s15.5.8,25-5.7"/>
          <path class="st0" d="M21,378.6s15.5-.8,25,5.7"/>
          <path class="st0" d="M15.5,368.5h-1.6c-.7,0-1.3.6-1.3,1.3v5.6c0,.7.6,1.3,1.3,1.3h1.6"/>
          <line class="st0" x1="17.3" y1="376.2" x2="19.1" y2="376.2"/>
        </g>
      </g>
    </g>
  </g>
</svg>