<?xml version="1.0" encoding="UTF-8"?>
<svg id="b" data-name="Layer 2" xmlns="http://www.w3.org/2000/svg" viewBox="0 0 159.45 506.329">
  <g id="c" data-name="Layer 1">
    <g>
      <g>
        <g>
          <path d="M6.746,80.97v13.334h-2.903v-13.334h2.903Z"/>
          <path d="M18.991,80.97v13.334h-2.857l-3.773-8.297v8.297h-2.839v-13.334h2.848l3.792,8.343v-8.343h2.83Z"/>
          <path d="M23.964,80.97l2.299,10.339.403,2.995h-2.125l-3.755-13.334h3.178ZM25.905,91.309l2.299-10.339h3.205l-3.791,13.334h-2.098l.385-2.995Z"/>
          <path d="M36.098,80.97v13.334h-2.912v-13.334h2.912ZM40.951,80.97v2.363h-5.806v-2.363h5.806ZM40.183,86.318v2.271h-5.037v-2.271h5.037ZM40.951,91.95v2.354h-5.806v-2.354h5.806Z"/>
          <path d="M48.645,90.778c0-.226-.021-.431-.064-.614s-.127-.351-.252-.503c-.125-.153-.308-.308-.549-.467-.241-.159-.561-.323-.957-.495-.489-.201-.964-.422-1.425-.664s-.876-.523-1.245-.847-.662-.702-.879-1.136-.325-.943-.325-1.529c0-.568.106-1.082.32-1.543.214-.461.515-.854.902-1.181s.843-.577,1.364-.751c.522-.174,1.101-.261,1.735-.261.843,0,1.583.173,2.221.518.639.345,1.135.828,1.488,1.447.354.62.531,1.341.531,2.166h-2.903c0-.354-.047-.668-.142-.943-.095-.274-.246-.49-.453-.646-.208-.156-.477-.233-.806-.233-.3,0-.55.064-.751.192-.202.128-.354.304-.454.526-.101.223-.15.466-.15.728,0,.214.05.403.15.568.101.165.238.317.412.458.175.141.381.275.618.403.238.128.501.25.788.366.598.238,1.131.496,1.598.774.468.278.858.594,1.173.948s.551.752.709,1.195c.159.443.238.945.238,1.507,0,.58-.096,1.097-.288,1.552-.192.455-.472.846-.838,1.172-.366.327-.808.576-1.323.747-.517.171-1.095.256-1.735.256-.604,0-1.188-.087-1.75-.261-.562-.174-1.061-.443-1.497-.806s-.781-.824-1.035-1.383c-.253-.559-.38-1.226-.38-2.001h2.912c0,.397.034.734.102,1.012.066.278.174.5.32.664.146.165.332.284.559.357.226.073.494.11.806.11.317,0,.568-.061.751-.183.184-.122.312-.292.39-.508.076-.217.114-.454.114-.71Z"/>
          <path d="M62.738,80.97v2.363h-9.368v-2.363h9.368ZM59.46,80.97v13.334h-2.903v-13.334h2.903Z"/>
          <path d="M67.895,80.97v13.334h-2.903v-13.334h2.903Z"/>
          <path d="M79.902,87.243v5.532c-.202.201-.492.437-.87.705-.379.269-.865.504-1.461.705-.595.202-1.309.302-2.139.302-.751,0-1.43-.116-2.037-.348s-1.127-.586-1.558-1.062c-.43-.477-.761-1.072-.993-1.786s-.348-1.56-.348-2.537v-2.234c0-.971.114-1.816.343-2.537.229-.72.553-1.319.971-1.795.419-.476.919-.83,1.502-1.062.583-.232,1.238-.348,1.965-.348,1.031,0,1.88.172,2.546.517.665.345,1.166.852,1.502,1.521s.525,1.485.567,2.45h-2.793c-.036-.537-.12-.961-.252-1.273-.131-.312-.317-.534-.559-.668s-.551-.202-.93-.202c-.317,0-.597.06-.838.179s-.444.312-.608.577c-.165.265-.287.613-.367,1.044-.079.43-.118.957-.118,1.58v2.253c0,.617.042,1.144.128,1.58.085.437.214.786.385,1.049s.396.453.678.572c.28.119.613.179.998.179.28,0,.508-.031.683-.092.174-.061.317-.131.43-.21.113-.079.203-.134.271-.165v-2.308h-1.759v-2.116h4.662Z"/>
          <path d="M85.405,80.97v13.334h-2.903v-13.334h2.903Z"/>
          <path d="M91.093,80.97v13.334h-2.912v-13.334h2.912ZM95.946,80.97v2.363h-5.806v-2.363h5.806ZM95.178,86.318v2.271h-5.037v-2.271h5.037ZM95.946,91.95v2.354h-5.806v-2.354h5.806Z"/>
          <path d="M98.026,80.97h4.424c.891,0,1.657.152,2.299.458.641.306,1.132.757,1.474,1.355.342.599.514,1.34.514,2.226,0,.732-.097,1.355-.289,1.868s-.466.938-.819,1.273c-.354.336-.772.607-1.255.815l-.925.55h-3.517l-.019-2.363h2.464c.329,0,.601-.078.814-.234.214-.155.374-.375.481-.659.106-.284.16-.618.16-1.003,0-.403-.051-.748-.151-1.035s-.252-.507-.453-.66c-.201-.152-.461-.229-.778-.229h-1.512v10.971h-2.912v-13.334ZM104.006,94.304l-2.399-5.925h3.059l2.464,5.788v.137h-3.123Z"/>
          <path d="M112.092,80.97v13.334h-2.912v-13.334h2.912ZM116.945,80.97v2.363h-5.806v-2.363h5.806ZM116.177,86.318v2.271h-5.037v-2.271h5.037ZM116.945,91.95v2.354h-5.806v-2.354h5.806Z"/>
          <path d="M128.486,80.97v13.334h-2.857l-3.773-8.297v8.297h-2.839v-13.334h2.848l3.792,8.343v-8.343h2.83Z"/>
        </g>
        <g>
          <rect x="3.207" y="104.434" width="153.98" height="28.31" fill="none"/>
          <path d="M5.766,104.892v8.334h-1.677v-8.334h1.677ZM8.691,104.892v1.396h-3.349v-1.396h3.349ZM8.376,108.435v1.385h-3.034v-1.385h3.034Z"/>
          <path d="M15.938,108.418v1.385c0,.588-.072,1.103-.215,1.545-.144.443-.346.811-.606,1.104-.262.294-.577.515-.945.664s-.775.223-1.222.223-.854-.074-1.222-.223-.686-.37-.95-.664c-.266-.293-.471-.662-.615-1.104-.146-.442-.218-.958-.218-1.545v-1.385c0-.606.07-1.136.212-1.588.141-.452.345-.83.612-1.133.267-.303.584-.532.95-.687.366-.155.772-.232,1.219-.232s.854.077,1.22.232c.366.154.683.383.95.687.267.303.472.681.615,1.133.143.452.215.982.215,1.588ZM14.272,109.804v-1.396c0-.401-.028-.741-.086-1.022-.058-.28-.143-.51-.258-.689-.114-.179-.254-.311-.418-.395s-.354-.126-.572-.126-.409.042-.575.126-.305.216-.418.395c-.112.179-.196.409-.251.689-.056.281-.083.621-.083,1.022v1.396c0,.382.028.709.085.981.058.273.144.495.258.664.114.17.255.296.421.378s.357.123.575.123c.214,0,.403-.041.569-.123s.305-.208.415-.378c.11-.169.194-.391.252-.664.058-.272.086-.6.086-.981Z"/>
          <path d="M17.573,104.892h2.674c.557,0,1.032.096,1.425.286.394.191.694.473.904.847s.315.836.315,1.385c0,.45-.062.835-.184,1.153-.122.319-.296.584-.521.796-.226.211-.494.38-.808.506l-.509.303h-2.17l-.006-1.391h1.506c.229,0,.419-.051.569-.152s.264-.244.338-.429.111-.402.111-.65c0-.263-.033-.489-.101-.678-.066-.189-.171-.333-.314-.432-.143-.099-.329-.149-.558-.149h-.996v6.938h-1.678v-8.334ZM21.358,113.226l-1.528-3.715,1.757-.006,1.562,3.641v.08h-1.791Z"/>
          <path d="M27.991,111.034c0-.148-.014-.284-.04-.406s-.083-.235-.169-.338-.21-.206-.372-.309-.373-.209-.632-.32c-.31-.13-.609-.268-.899-.415s-.551-.318-.784-.512c-.232-.195-.417-.424-.552-.69-.136-.265-.203-.577-.203-.936,0-.351.063-.67.191-.956s.31-.531.544-.735.512-.362.833-.472c.32-.111.675-.166,1.064-.166.534,0,.997.111,1.388.332.392.221.694.524.91.91.216.385.323.828.323,1.328h-1.665c0-.236-.034-.444-.101-.624-.066-.179-.173-.32-.317-.423-.146-.103-.332-.155-.562-.155-.214,0-.39.043-.529.129-.139.086-.242.201-.309.346-.067.145-.101.309-.101.492,0,.138.033.26.101.367.066.107.159.204.277.292.118.087.259.171.421.251s.341.159.535.235c.378.149.712.312,1.002.489.289.178.532.376.727.595.194.22.342.467.44.741.1.275.149.588.149.939,0,.347-.061.663-.181.947s-.295.528-.523.732c-.229.205-.505.362-.827.472-.323.111-.683.166-1.079.166-.386,0-.75-.054-1.094-.163-.343-.108-.646-.274-.907-.498-.261-.224-.466-.508-.615-.853-.148-.345-.223-.754-.223-1.228h1.677c0,.252.024.467.074.644.05.178.126.319.229.424.103.105.229.182.38.231.151.05.324.075.519.075.221,0,.397-.041.529-.123s.227-.195.283-.338c.058-.143.086-.302.086-.478Z"/>
          <path d="M35.174,110.451h1.666c-.023.625-.148,1.153-.378,1.583-.229.429-.555.754-.976.976-.422.221-.931.332-1.525.332-.462,0-.872-.077-1.23-.231-.359-.155-.664-.383-.916-.684s-.442-.674-.569-1.119c-.128-.444-.192-.955-.192-1.531v-1.425c0-.576.068-1.089.203-1.537.136-.448.33-.823.584-1.125.254-.302.562-.53.922-.684.36-.155.768-.232,1.222-.232.606,0,1.114.114,1.522.341s.725.56.947.999c.224.439.358.973.403,1.603h-1.677c-.008-.396-.051-.708-.129-.936s-.201-.387-.369-.478c-.168-.092-.4-.137-.698-.137-.222,0-.412.038-.572.114s-.292.2-.395.372c-.104.172-.179.396-.227.672-.048.277-.071.616-.071,1.016v1.437c0,.393.021.727.062,1.002.042.274.109.5.2.675.092.176.217.303.375.383.158.081.36.121.604.121.282,0,.51-.042.684-.126s.303-.235.387-.452c.084-.218.132-.527.143-.927Z"/>
          <path d="M39.971,104.892v8.334h-1.677v-8.334h1.677ZM42.913,108.264v1.391h-3.418v-1.391h3.418ZM44.126,104.892v8.334h-1.66v-8.334h1.66Z"/>
          <path d="M47.578,104.892v8.334h-1.677v-8.334h1.677ZM50.669,104.892v1.396h-3.611v-1.396h3.611ZM50.195,108.264v1.351h-3.137v-1.351h3.137ZM50.681,111.835v1.391h-3.623v-1.391h3.623Z"/>
          <path d="M57.892,104.892v8.334h-1.619l-2.616-5.214v5.214h-1.591v-8.334h1.597l2.639,5.272v-5.272h1.591Z"/>
          <path d="M60.972,111.818v1.122c0,.435-.107.871-.321,1.308-.213.437-.484.795-.812,1.073l-.864-.446c.1-.176.194-.352.286-.529.092-.178.168-.373.229-.587.061-.214.091-.458.091-.732v-1.208h1.392Z"/>
          <path d="M68.968,104.892h1.671v5.724c0,.641-.117,1.163-.352,1.565-.234.402-.559.696-.971.881s-.883.277-1.413.277c-.534,0-1.01-.092-1.426-.277s-.739-.479-.97-.881c-.231-.403-.347-.924-.347-1.565v-5.724h1.672v5.724c0,.362.041.641.123.835.082.195.202.326.36.395s.354.103.587.103c.236,0,.432-.034.586-.103.155-.069.273-.2.355-.395.082-.194.123-.473.123-.835v-5.724ZM65.665,103.633c0-.202.074-.374.224-.515.148-.141.337-.211.566-.211s.419.07.569.211.226.313.226.515c0,.206-.075.379-.226.518-.15.14-.341.209-.569.209s-.418-.069-.566-.209c-.149-.139-.224-.312-.224-.518ZM68.458,103.639c0-.206.073-.38.221-.521.146-.141.337-.211.569-.211.229,0,.419.07.569.211.151.141.227.315.227.521,0,.202-.075.373-.227.512-.15.14-.341.209-.569.209-.232,0-.423-.069-.569-.209-.147-.139-.221-.31-.221-.512Z"/>
          <path d="M75.144,109.592h-1.711l-.006-1.213h1.454c.229,0,.417-.039.563-.117s.256-.195.326-.349c.07-.155.106-.343.106-.564,0-.255-.034-.461-.101-.615-.066-.155-.172-.267-.314-.338-.144-.07-.331-.106-.564-.106h-.893v6.938h-1.677v-8.334h2.569c.412,0,.782.046,1.11.138.328.091.607.231.836.42.229.189.404.426.526.71s.184.621.184,1.01c0,.343-.068.66-.206.95s-.354.527-.646.712c-.294.185-.676.287-1.146.306l-.412.452ZM75.081,113.226h-2.124l.67-1.391h1.454c.225,0,.404-.046.538-.14.134-.093.231-.221.295-.383.062-.162.094-.348.094-.558,0-.237-.027-.443-.083-.618-.055-.175-.146-.31-.271-.404-.126-.093-.296-.14-.51-.14h-1.442l.012-1.213h1.752l.395.481c.446-.015.803.07,1.07.254.267.186.459.426.575.721.116.296.175.61.175.942,0,.534-.101.983-.301,1.348-.2.365-.493.64-.879.824-.385.186-.858.278-1.419.278Z"/>
          <path d="M80.994,104.892v8.334h-1.677v-8.334h1.677ZM84.085,104.892v1.396h-3.611v-1.396h3.611ZM83.611,108.264v1.351h-3.137v-1.351h3.137ZM84.097,111.835v1.391h-3.623v-1.391h3.623Z"/>
          <path d="M85.487,104.892h2.674c.557,0,1.032.096,1.425.286.394.191.694.473.904.847s.315.836.315,1.385c0,.45-.062.835-.184,1.153-.122.319-.296.584-.521.796-.226.211-.494.38-.808.506l-.509.303h-2.17l-.006-1.391h1.506c.229,0,.419-.051.569-.152s.264-.244.338-.429.111-.402.111-.65c0-.263-.033-.489-.101-.678-.066-.189-.171-.333-.314-.432-.143-.099-.329-.149-.558-.149h-.996v6.938h-1.678v-8.334ZM89.271,113.226l-1.528-3.715,1.757-.006,1.562,3.641v.08h-1.791Z"/>
          <path d="M95.224,110.29h-1.712v-1.391h1.712c.236,0,.429-.053.578-.16.148-.107.257-.255.326-.444.068-.189.103-.401.103-.638,0-.24-.034-.465-.103-.675-.069-.21-.178-.378-.326-.504-.149-.126-.342-.189-.578-.189h-1.168v6.938h-1.677v-8.334h2.845c.557,0,1.036.119,1.439.355.402.237.712.562.93.976s.326.888.326,1.422c0,.542-.108,1.009-.326,1.402s-.527.698-.93.916c-.403.218-.883.326-1.439.326Z"/>
          <path d="M99.458,104.892h2.674c.557,0,1.032.096,1.425.286.394.191.694.473.904.847s.315.836.315,1.385c0,.45-.062.835-.184,1.153-.122.319-.296.584-.521.796-.226.211-.494.38-.808.506l-.509.303h-2.17l-.006-1.391h1.506c.229,0,.419-.051.569-.152s.264-.244.338-.429.111-.402.111-.65c0-.263-.033-.489-.101-.678-.066-.189-.171-.333-.314-.432-.143-.099-.329-.149-.558-.149h-.996v6.938h-1.678v-8.334ZM103.242,113.226l-1.528-3.715,1.757-.006,1.562,3.641v.08h-1.791Z"/>
          <path d="M110.094,104.892h1.671v5.724c0,.641-.117,1.163-.352,1.565-.234.402-.559.696-.971.881s-.883.277-1.413.277c-.534,0-1.01-.092-1.426-.277s-.739-.479-.97-.881c-.231-.403-.347-.924-.347-1.565v-5.724h1.672v5.724c0,.362.041.641.123.835.082.195.202.326.36.395s.354.103.587.103c.236,0,.432-.034.586-.103.155-.069.273-.2.355-.395.082-.194.123-.473.123-.835v-5.724ZM106.791,103.633c0-.202.074-.374.224-.515.148-.141.337-.211.566-.211s.419.07.569.211.226.313.226.515c0,.206-.075.379-.226.518-.15.14-.341.209-.569.209s-.418-.069-.566-.209c-.149-.139-.224-.312-.224-.518ZM109.584,103.639c0-.206.073-.38.221-.521.146-.141.337-.211.569-.211.229,0,.419.07.569.211.151.141.227.315.227.521,0,.202-.075.373-.227.512-.15.14-.341.209-.569.209-.232,0-.423-.069-.569-.209-.147-.139-.221-.31-.221-.512Z"/>
          <path d="M115.131,104.892v8.334h-1.677v-8.334h1.677ZM118.056,104.892v1.396h-3.349v-1.396h3.349ZM117.741,108.435v1.385h-3.034v-1.385h3.034Z"/>
          <path d="M121.123,104.892v8.334h-1.677v-8.334h1.677ZM124.214,104.892v1.396h-3.611v-1.396h3.611ZM123.739,108.264v1.351h-3.137v-1.351h3.137ZM124.226,111.835v1.391h-3.623v-1.391h3.623Z"/>
          <path d="M131.438,104.892v8.334h-1.619l-2.616-5.214v5.214h-1.591v-8.334h1.597l2.639,5.272v-5.272h1.591Z"/>
          <path d="M139.646,104.892h1.671v5.724c0,.641-.117,1.163-.352,1.565-.234.402-.559.696-.971.881s-.883.277-1.413.277c-.534,0-1.01-.092-1.426-.277s-.739-.479-.97-.881c-.231-.403-.347-.924-.347-1.565v-5.724h1.672v5.724c0,.362.041.641.123.835.082.195.202.326.36.395s.354.103.587.103c.236,0,.432-.034.586-.103.155-.069.273-.2.355-.395.082-.194.123-.473.123-.835v-5.724Z"/>
          <path d="M148.832,104.892v8.334h-1.619l-2.616-5.214v5.214h-1.591v-8.334h1.597l2.639,5.272v-5.272h1.591Z"/>
          <path d="M152.273,104.892v8.334h-1.677v-8.334h1.677ZM152.771,113.226h-1.471l.011-1.391h1.46c.404,0,.72-.071.947-.214.227-.143.387-.371.478-.684.092-.313.138-.723.138-1.23v-1.299c0-.385-.024-.713-.074-.982s-.134-.486-.252-.652-.275-.288-.473-.366c-.196-.078-.443-.118-.741-.118h-1.522v-1.396h1.522c.481,0,.918.078,1.312.235.393.156.73.384,1.013.684.282.299.5.668.652,1.107s.229.938.229,1.5v1.288c0,.561-.077,1.06-.229,1.497s-.369.805-.649,1.105c-.28.299-.619.527-1.016.684-.397.157-.842.235-1.334.235Z"/>
          <path d="M5.766,118.959v8.334h-1.677v-8.334h1.677ZM6.264,127.293h-1.471l.011-1.391h1.46c.404,0,.72-.071.947-.214.227-.143.387-.371.478-.684.092-.313.138-.723.138-1.23v-1.299c0-.385-.024-.713-.074-.982s-.134-.486-.252-.652-.275-.288-.473-.366c-.196-.078-.443-.118-.741-.118h-1.522v-1.396h1.522c.481,0,.918.078,1.312.235.393.156.73.384,1.013.684.282.299.5.668.652,1.107s.229.938.229,1.5v1.288c0,.561-.077,1.06-.229,1.497s-.369.805-.649,1.105c-.28.299-.619.527-1.016.684-.397.157-.842.235-1.334.235Z"/>
          <path d="M12.862,118.959v8.334h-1.665v-8.334h1.665Z"/>
          <path d="M16.378,118.959v8.334h-1.677v-8.334h1.677ZM19.469,118.959v1.396h-3.611v-1.396h3.611ZM18.994,122.33v1.351h-3.137v-1.351h3.137ZM19.481,125.902v1.391h-3.623v-1.391h3.623Z"/>
          <path d="M24.809,118.959l1.076,7.104-.183,1.23h-1.054l-1.493-8.334h1.653ZM25.267,126.051l1.334-7.092h.882l.263,1.099-1.431,7.235h-.956l-.092-1.242ZM27.991,118.959l1.346,7.126-.109,1.208h-.955l-1.426-7.247.27-1.087h.875ZM28.713,126.034l1.07-7.075h1.648l-1.482,8.334h-1.059l-.178-1.259Z"/>
          <path d="M35.541,120.447l-1.797,6.846h-1.769l2.604-8.334h1.104l-.144,1.488ZM37.013,124.185v1.391h-3.761v-1.391h3.761ZM36.949,127.293l-1.803-6.846-.166-1.488h1.122l2.627,8.334h-1.78Z"/>
          <path d="M41.609,118.959v8.334h-1.677v-8.334h1.677ZM44.551,122.33v1.391h-3.418v-1.391h3.418ZM45.764,118.959v8.334h-1.66v-8.334h1.66Z"/>
          <path d="M47.543,118.959h2.674c.557,0,1.032.096,1.425.286.394.191.694.473.904.847s.315.836.315,1.385c0,.45-.062.835-.184,1.153-.122.319-.296.584-.521.796-.226.211-.494.38-.808.506l-.509.303h-2.17l-.006-1.391h1.506c.229,0,.419-.051.569-.152s.264-.244.338-.429.111-.402.111-.65c0-.263-.033-.489-.101-.678-.066-.189-.171-.333-.314-.432-.143-.099-.329-.149-.558-.149h-.996v6.938h-1.678v-8.334ZM51.327,127.293l-1.528-3.715,1.757-.006,1.562,3.641v.08h-1.791Z"/>
          <path d="M56.112,118.959v8.334h-1.677v-8.334h1.677ZM59.055,122.33v1.391h-3.418v-1.391h3.418ZM60.268,118.959v8.334h-1.66v-8.334h1.66Z"/>
          <path d="M63.72,118.959v8.334h-1.677v-8.334h1.677ZM66.811,118.959v1.396h-3.611v-1.396h3.611ZM66.336,122.33v1.351h-3.137v-1.351h3.137ZM66.822,125.902v1.391h-3.623v-1.391h3.623Z"/>
          <path d="M69.946,118.959v8.334h-1.665v-8.334h1.665Z"/>
          <path d="M77.01,118.959v1.396h-5.77v-1.396h5.77ZM74.938,118.959v8.334h-1.665v-8.334h1.665Z"/>
          <path d="M83.776,120.447l-1.797,6.846h-1.769l2.604-8.334h1.104l-.144,1.488ZM85.247,124.185v1.391h-3.761v-1.391h3.761ZM85.184,127.293l-1.803-6.846-.166-1.488h1.122l2.627,8.334h-1.78Z"/>
          <path d="M91.812,118.959h1.671v5.724c0,.641-.117,1.163-.352,1.565-.234.402-.559.696-.971.881s-.883.277-1.413.277c-.534,0-1.01-.092-1.426-.277s-.739-.479-.97-.881c-.231-.403-.347-.924-.347-1.565v-5.724h1.672v5.724c0,.362.041.641.123.835.082.195.202.326.36.395s.354.103.587.103c.236,0,.432-.034.586-.103.155-.069.273-.2.355-.395.082-.194.123-.473.123-.835v-5.724Z"/>
          <path d="M96.849,118.959v8.334h-1.677v-8.334h1.677ZM99.774,118.959v1.396h-3.349v-1.396h3.349ZM99.459,122.502v1.385h-3.034v-1.385h3.034Z"/>
          <path d="M102.842,118.959v8.334h-1.677v-8.334h1.677ZM103.34,127.293h-1.471l.011-1.391h1.46c.404,0,.72-.071.947-.214.227-.143.387-.371.478-.684.092-.313.138-.723.138-1.23v-1.299c0-.385-.024-.713-.074-.982s-.134-.486-.252-.652-.275-.288-.473-.366c-.196-.078-.443-.118-.741-.118h-1.522v-1.396h1.522c.481,0,.918.078,1.312.235.393.156.73.384,1.013.684.282.299.5.668.652,1.107s.229.938.229,1.5v1.288c0,.561-.077,1.06-.229,1.497s-.369.805-.649,1.105c-.28.299-.619.527-1.016.684-.397.157-.842.235-1.334.235Z"/>
          <path d="M109.876,118.959v8.334h-1.677v-8.334h1.677ZM112.967,118.959v1.396h-3.611v-1.396h3.611ZM112.492,122.33v1.351h-3.137v-1.351h3.137ZM112.979,125.902v1.391h-3.623v-1.391h3.623Z"/>
          <path d="M118.336,124.517h1.666c-.023.625-.148,1.153-.378,1.583-.229.429-.555.754-.976.976-.422.221-.931.332-1.525.332-.462,0-.872-.077-1.23-.231-.359-.155-.664-.383-.916-.684s-.442-.674-.569-1.119c-.128-.444-.192-.955-.192-1.531v-1.425c0-.576.068-1.089.203-1.537.136-.448.33-.823.584-1.125.254-.302.562-.53.922-.684.36-.155.768-.232,1.222-.232.606,0,1.114.114,1.522.341s.725.56.947.999c.224.439.358.973.403,1.603h-1.677c-.008-.396-.051-.708-.129-.936s-.201-.387-.369-.478c-.168-.092-.4-.137-.698-.137-.222,0-.412.038-.572.114s-.292.2-.395.372c-.104.172-.179.396-.227.672-.048.277-.071.616-.071,1.016v1.437c0,.393.021.727.062,1.002.042.274.109.5.2.675.092.176.217.303.375.383.158.081.36.121.604.121.282,0,.51-.042.684-.126s.303-.235.387-.452c.084-.218.132-.527.143-.927Z"/>
          <path d="M123.133,118.959v8.334h-1.677v-8.334h1.677ZM127.272,118.959l-2.702,4.138-1.654,2.061-.32-1.677,1.07-1.786,1.568-2.736h2.038ZM125.337,127.293l-1.82-3.824,1.23-1.093,2.564,4.917h-1.975Z"/>
          <path d="M130.029,118.959v8.334h-1.677v-8.334h1.677ZM133.12,118.959v1.396h-3.611v-1.396h3.611ZM132.646,122.33v1.351h-3.137v-1.351h3.137ZM133.132,125.902v1.391h-3.623v-1.391h3.623Z"/>
          <path d="M140.344,118.959v8.334h-1.619l-2.616-5.214v5.214h-1.591v-8.334h1.597l2.639,5.272v-5.272h1.591Z"/>
          <path d="M141.952,126.474c0-.256.084-.468.252-.635.168-.168.396-.252.682-.252s.513.084.681.252c.168.167.252.379.252.635,0,.251-.084.461-.252.629s-.395.252-.681.252-.514-.084-.682-.252-.252-.378-.252-.629Z"/>
        </g>
        <g>
          <circle cx="32.093" cy="32.093" r="30.658" fill="#e5caed" stroke="#000" stroke-miterlimit="10" stroke-width="2.871"/>
          <g id="d" data-name="line">
            <circle cx="36.445" cy="24.051" r="10.939" fill="none" stroke="#000" stroke-linecap="round" stroke-linejoin="round" stroke-width="1.495"/>
            <circle cx="36.445" cy="24.051" r="8.345" transform="translate(-3.434 41.838) rotate(-57.459)" fill="none" stroke="#000" stroke-linecap="round" stroke-linejoin="round" stroke-width="1.495"/>
            <path d="M26.983,34.881l3.293,2.101-7.844,12.294c-.56.878-1.752,1.12-2.661.54h0c-.909-.58-1.192-1.762-.632-2.641l7.844-12.294Z" fill="none" stroke="#000" stroke-linecap="round" stroke-linejoin="round" stroke-width="1.495"/>
          </g>
        </g>
      </g>
      <g>
        <g>
          <path d="M7.124,246.431v13.334h-2.912v-13.334h2.912ZM11.978,246.431v2.363h-5.806v-2.363h5.806ZM11.209,251.78v2.271h-5.037v-2.271h5.037ZM11.978,257.412v2.354h-5.806v-2.354h5.806Z"/>
          <path d="M23.518,246.431v13.334h-2.857l-3.773-8.297v8.297h-2.839v-13.334h2.848l3.792,8.343v-8.343h2.83Z"/>
          <path d="M35.386,252.704v5.532c-.202.201-.492.437-.87.705-.379.269-.865.504-1.461.705-.595.202-1.309.302-2.139.302-.751,0-1.43-.116-2.037-.348s-1.127-.586-1.558-1.062c-.43-.477-.761-1.072-.993-1.786s-.348-1.56-.348-2.537v-2.234c0-.971.114-1.816.343-2.537.229-.72.553-1.319.971-1.795.419-.476.919-.83,1.502-1.062.583-.232,1.238-.348,1.965-.348,1.031,0,1.88.172,2.546.517.665.345,1.166.852,1.502,1.521s.525,1.485.567,2.45h-2.793c-.036-.537-.12-.961-.252-1.273-.131-.312-.317-.534-.559-.668s-.551-.202-.93-.202c-.317,0-.597.06-.838.179s-.444.312-.608.577c-.165.265-.287.613-.367,1.044-.079.43-.118.957-.118,1.58v2.253c0,.617.042,1.144.128,1.58.085.437.214.786.385,1.049s.396.453.678.572c.28.119.613.179.998.179.28,0,.508-.031.683-.092.174-.061.317-.131.43-.21.113-.079.203-.134.271-.165v-2.308h-1.759v-2.116h4.662Z"/>
          <path d="M42.795,249.023l-2.684,10.743h-3.104l4.148-13.334h1.933l-.293,2.591ZM44.993,254.793v2.354h-5.907v-2.354h5.907ZM44.892,259.765l-2.692-10.743-.329-2.591h1.96l4.167,13.334h-3.105Z"/>
          <path d="M58.831,252.704v5.532c-.202.201-.492.437-.87.705-.379.269-.865.504-1.461.705-.595.202-1.309.302-2.139.302-.751,0-1.43-.116-2.037-.348s-1.127-.586-1.558-1.062c-.43-.477-.761-1.072-.993-1.786s-.348-1.56-.348-2.537v-2.234c0-.971.114-1.816.343-2.537.229-.72.553-1.319.971-1.795.419-.476.919-.83,1.502-1.062.583-.232,1.238-.348,1.965-.348,1.031,0,1.88.172,2.546.517.665.345,1.166.852,1.502,1.521s.525,1.485.567,2.45h-2.793c-.036-.537-.12-.961-.252-1.273-.131-.312-.317-.534-.559-.668s-.551-.202-.93-.202c-.317,0-.597.06-.838.179s-.444.312-.608.577c-.165.265-.287.613-.367,1.044-.079.43-.118.957-.118,1.58v2.253c0,.617.042,1.144.128,1.58.085.437.214.786.385,1.049s.396.453.678.572c.28.119.613.179.998.179.28,0,.508-.031.683-.092.174-.061.317-.131.43-.21.113-.079.203-.134.271-.165v-2.308h-1.759v-2.116h4.662Z"/>
          <path d="M64.334,246.431v13.334h-2.903v-13.334h2.903Z"/>
          <path d="M70.022,246.431v13.334h-2.912v-13.334h2.912ZM74.875,246.431v2.363h-5.806v-2.363h5.806ZM74.107,251.78v2.271h-5.037v-2.271h5.037ZM74.875,257.412v2.354h-5.806v-2.354h5.806Z"/>
          <path d="M76.954,246.431h4.424c.891,0,1.657.152,2.299.458.641.306,1.132.757,1.474,1.355.342.599.514,1.34.514,2.226,0,.732-.097,1.355-.289,1.868s-.466.938-.819,1.273c-.354.336-.772.607-1.255.815l-.925.55h-3.517l-.019-2.363h2.464c.329,0,.601-.078.814-.234.214-.155.374-.375.481-.659.106-.284.16-.618.16-1.003,0-.403-.051-.748-.151-1.035s-.252-.507-.453-.66c-.201-.152-.461-.229-.778-.229h-1.512v10.971h-2.912v-13.334ZM82.935,259.765l-2.399-5.925h3.059l2.464,5.788v.137h-3.123Z"/>
          <path d="M91.022,246.431v13.334h-2.912v-13.334h2.912ZM95.875,246.431v2.363h-5.806v-2.363h5.806ZM95.107,251.78v2.271h-5.037v-2.271h5.037ZM95.875,257.412v2.354h-5.806v-2.354h5.806Z"/>
          <path d="M107.415,246.431v13.334h-2.857l-3.773-8.297v8.297h-2.839v-13.334h2.848l3.792,8.343v-8.343h2.83Z"/>
        </g>
        <g>
          <rect x="3.712" y="269.672" width="153.98" height="57.148" fill="none"/>
          <path d="M4.595,270.13h1.402l.211,5.495v2.839h-1.613v-8.334ZM5.19,270.13h1.466l1.705,5.701,1.694-5.701h1.3l-2.37,8.334h-1.253l-2.542-8.334ZM10.713,270.13h1.408v8.334h-1.614v-2.839l.206-5.495Z"/>
          <path d="M15.635,270.13v8.334h-1.665v-8.334h1.665Z"/>
          <path d="M22.699,270.13v1.396h-5.77v-1.396h5.77ZM20.627,270.13v8.334h-1.665v-8.334h1.665Z"/>
          <path d="M29.464,271.618l-1.797,6.846h-1.769l2.604-8.334h1.104l-.144,1.488ZM30.936,275.356v1.391h-3.761v-1.391h3.761ZM30.872,278.464l-1.803-6.846-.166-1.488h1.122l2.627,8.334h-1.78Z"/>
          <path d="M39.681,270.13v8.334h-1.619l-2.616-5.214v5.214h-1.591v-8.334h1.597l2.639,5.272v-5.272h1.591Z"/>
          <path d="M43.121,270.13v8.334h-1.677v-8.334h1.677ZM43.619,278.464h-1.471l.011-1.391h1.46c.404,0,.72-.071.947-.214.227-.143.387-.371.478-.684.092-.313.138-.723.138-1.23v-1.299c0-.385-.024-.713-.074-.982s-.134-.486-.252-.652-.275-.288-.473-.366c-.196-.078-.443-.118-.741-.118h-1.522v-1.396h1.522c.481,0,.918.078,1.312.235.393.156.73.384,1.013.684.282.299.5.668.652,1.107s.229.938.229,1.5v1.288c0,.561-.077,1.06-.229,1.497s-.369.805-.649,1.105c-.28.299-.619.527-1.016.684-.397.157-.842.235-1.334.235Z"/>
          <path d="M50.156,270.13v8.334h-1.677v-8.334h1.677ZM53.247,270.13v1.396h-3.611v-1.396h3.611ZM52.773,273.502v1.351h-3.137v-1.351h3.137ZM53.259,277.073v1.391h-3.623v-1.391h3.623Z"/>
          <path d="M54.649,270.13h2.674c.557,0,1.032.096,1.425.286.394.191.694.473.904.847s.315.836.315,1.385c0,.45-.062.835-.184,1.153-.122.319-.296.584-.521.796-.226.211-.494.38-.808.506l-.509.303h-2.17l-.006-1.391h1.506c.229,0,.419-.051.569-.152s.264-.244.338-.429.111-.402.111-.65c0-.263-.033-.489-.101-.678-.066-.189-.171-.333-.314-.432-.143-.099-.329-.149-.558-.149h-.996v6.938h-1.678v-8.334ZM58.433,278.464l-1.528-3.715,1.757-.006,1.562,3.641v.08h-1.791Z"/>
          <path d="M63.218,270.13v8.334h-1.677v-8.334h1.677ZM66.309,270.13v1.396h-3.611v-1.396h3.611ZM65.834,273.502v1.351h-3.137v-1.351h3.137ZM66.32,277.073v1.391h-3.623v-1.391h3.623Z"/>
          <path d="M73.531,270.13v8.334h-1.619l-2.616-5.214v5.214h-1.591v-8.334h1.597l2.639,5.272v-5.272h1.591Z"/>
          <path d="M79.737,270.13v8.334h-1.665v-8.334h1.665Z"/>
          <path d="M87.401,270.13v8.334h-1.619l-2.616-5.214v5.214h-1.591v-8.334h1.597l2.639,5.272v-5.272h1.591Z"/>
          <path d="M93.543,270.13v8.334h-1.677v-8.334h1.677ZM97.682,270.13l-2.702,4.138-1.654,2.061-.32-1.677,1.07-1.786,1.568-2.736h2.038ZM95.747,278.464l-1.82-3.824,1.23-1.093,2.564,4.917h-1.975Z"/>
          <path d="M104.442,273.656v1.385c0,.588-.072,1.103-.215,1.545-.144.443-.346.811-.606,1.104-.262.294-.577.515-.945.664s-.775.223-1.222.223-.854-.074-1.222-.223-.686-.37-.95-.664c-.266-.293-.471-.662-.615-1.104-.146-.442-.218-.958-.218-1.545v-1.385c0-.606.07-1.136.212-1.588.141-.452.345-.83.612-1.133.267-.303.584-.532.95-.687.366-.155.772-.232,1.219-.232s.854.077,1.22.232c.366.154.683.383.95.687.267.303.472.681.615,1.133.143.452.215.982.215,1.588ZM102.776,275.041v-1.396c0-.401-.028-.741-.086-1.022-.058-.28-.143-.51-.258-.689-.114-.179-.254-.311-.418-.395s-.354-.126-.572-.126-.409.042-.575.126-.305.216-.418.395c-.112.179-.196.409-.251.689-.056.281-.083.621-.083,1.022v1.396c0,.382.028.709.085.981.058.273.144.495.258.664.114.17.255.296.421.378s.357.123.575.123c.214,0,.403-.041.569-.123s.305-.208.415-.378c.11-.169.194-.391.252-.664.058-.272.086-.6.086-.981Z"/>
          <path d="M111.899,270.13v8.334h-1.619l-2.616-5.214v5.214h-1.591v-8.334h1.597l2.639,5.272v-5.272h1.591Z"/>
          <path d="M118.888,270.13v1.396h-5.77v-1.396h5.77ZM116.816,270.13v8.334h-1.665v-8.334h1.665Z"/>
          <path d="M122.608,271.618l-1.797,6.846h-1.769l2.604-8.334h1.104l-.144,1.488ZM124.079,275.356v1.391h-3.761v-1.391h3.761ZM124.016,278.464l-1.803-6.846-.166-1.488h1.122l2.627,8.334h-1.78Z"/>
          <path d="M128.676,270.13v8.334h-1.677v-8.334h1.677ZM132.815,270.13l-2.702,4.138-1.654,2.061-.32-1.677,1.07-1.786,1.568-2.736h2.038ZM130.88,278.464l-1.82-3.824,1.23-1.093,2.564,4.917h-1.975Z"/>
          <path d="M139.287,270.13v1.396h-5.77v-1.396h5.77ZM137.215,270.13v8.334h-1.665v-8.334h1.665Z"/>
          <path d="M9.987,284.197v1.396h-5.77v-1.396h5.77ZM7.914,284.197v8.334h-1.665v-8.334h1.665Z"/>
          <path d="M11.371,284.197h2.674c.557,0,1.032.096,1.425.286.394.191.694.473.904.847s.315.836.315,1.385c0,.45-.062.835-.184,1.153-.122.319-.296.584-.521.796-.226.211-.494.38-.808.506l-.509.303h-2.17l-.006-1.391h1.506c.229,0,.419-.051.569-.152s.264-.244.338-.429.111-.402.111-.65c0-.263-.033-.489-.101-.678-.066-.189-.171-.333-.314-.432-.143-.099-.329-.149-.558-.149h-.996v6.938h-1.678v-8.334ZM15.155,292.531l-1.528-3.715,1.757-.006,1.562,3.641v.08h-1.791Z"/>
          <path d="M19.941,284.197v8.334h-1.677v-8.334h1.677ZM23.031,284.197v1.396h-3.611v-1.396h3.611ZM22.557,287.568v1.351h-3.137v-1.351h3.137ZM23.043,291.139v1.391h-3.623v-1.391h3.623Z"/>
          <path d="M29.934,284.197v1.396h-5.77v-1.396h5.77ZM27.862,284.197v8.334h-1.665v-8.334h1.665Z"/>
          <path d="M32.99,284.197v8.334h-1.677v-8.334h1.677ZM36.081,284.197v1.396h-3.611v-1.396h3.611ZM35.607,287.568v1.351h-3.137v-1.351h3.137ZM36.093,291.139v1.391h-3.623v-1.391h3.623Z"/>
          <path d="M43.305,284.197v8.334h-1.619l-2.616-5.214v5.214h-1.591v-8.334h1.597l2.639,5.272v-5.272h1.591Z"/>
          <path d="M46.384,291.122v1.122c0,.435-.107.871-.321,1.308-.213.437-.484.795-.812,1.073l-.864-.446c.1-.176.194-.352.286-.529.092-.178.168-.373.229-.587.061-.214.091-.458.091-.732v-1.208h1.392Z"/>
          <path d="M51.878,284.197l1.574,6.548.258,1.786h-1.225l-2.398-8.334h1.791ZM53.23,290.745l1.579-6.548h1.81l-2.416,8.334h-1.219l.246-1.786Z"/>
          <path d="M59.497,284.197v8.334h-1.677v-8.334h1.677ZM62.588,284.197v1.396h-3.611v-1.396h3.611ZM62.113,287.568v1.351h-3.137v-1.351h3.137ZM62.6,291.139v1.391h-3.623v-1.391h3.623Z"/>
          <path d="M63.99,284.197h2.674c.557,0,1.032.096,1.425.286.394.191.694.473.904.847s.315.836.315,1.385c0,.45-.062.835-.184,1.153-.122.319-.296.584-.521.796-.226.211-.494.38-.808.506l-.509.303h-2.17l-.006-1.391h1.506c.229,0,.419-.051.569-.152s.264-.244.338-.429.111-.402.111-.65c0-.263-.033-.489-.101-.678-.066-.189-.171-.333-.314-.432-.143-.099-.329-.149-.558-.149h-.996v6.938h-1.678v-8.334ZM67.775,292.531l-1.528-3.715,1.757-.006,1.562,3.641v.08h-1.791Z"/>
          <path d="M74.407,290.338c0-.148-.014-.284-.04-.406s-.083-.235-.169-.338-.21-.206-.372-.309-.373-.209-.632-.32c-.31-.13-.609-.268-.899-.415s-.551-.318-.784-.512c-.232-.195-.417-.424-.552-.69-.136-.265-.203-.577-.203-.936,0-.351.063-.67.191-.956s.31-.531.544-.735.512-.362.833-.472c.32-.111.675-.166,1.064-.166.534,0,.997.111,1.388.332.392.221.694.524.91.91.216.385.323.828.323,1.328h-1.665c0-.236-.034-.444-.101-.624-.066-.179-.173-.32-.317-.423-.146-.103-.332-.155-.562-.155-.214,0-.39.043-.529.129-.139.086-.242.201-.309.346-.067.145-.101.309-.101.492,0,.138.033.26.101.367.066.107.159.204.277.292.118.087.259.171.421.251s.341.159.535.235c.378.149.712.312,1.002.489.289.178.532.376.727.595.194.22.342.467.44.741.1.275.149.588.149.939,0,.347-.061.663-.181.947s-.295.528-.523.732c-.229.205-.505.362-.827.472-.323.111-.683.166-1.079.166-.386,0-.75-.054-1.094-.163-.343-.108-.646-.274-.907-.498-.261-.224-.466-.508-.615-.853-.148-.345-.223-.754-.223-1.228h1.677c0,.252.024.467.074.644.05.178.126.319.229.424.103.105.229.182.38.231.151.05.324.075.519.075.221,0,.397-.041.529-.123s.227-.195.283-.338c.058-.143.086-.302.086-.478Z"/>
          <path d="M83.011,284.197v1.396h-5.77v-1.396h5.77ZM80.939,284.197v8.334h-1.665v-8.334h1.665Z"/>
          <path d="M86.068,284.197v8.334h-1.677v-8.334h1.677ZM89.158,284.197v1.396h-3.611v-1.396h3.611ZM88.684,287.568v1.351h-3.137v-1.351h3.137ZM89.17,291.139v1.391h-3.623v-1.391h3.623Z"/>
          <path d="M92.232,284.197v8.334h-1.677v-8.334h1.677ZM95.174,287.568v1.391h-3.418v-1.391h3.418ZM96.387,284.197v8.334h-1.66v-8.334h1.66Z"/>
          <path d="M99.839,284.197v8.334h-1.677v-8.334h1.677ZM102.93,284.197v1.396h-3.611v-1.396h3.611ZM102.455,287.568v1.351h-3.137v-1.351h3.137ZM102.942,291.139v1.391h-3.623v-1.391h3.623Z"/>
          <path d="M110.153,284.197v8.334h-1.619l-2.616-5.214v5.214h-1.591v-8.334h1.597l2.639,5.272v-5.272h1.591Z"/>
          <path d="M113.233,291.122v1.122c0,.435-.107.871-.321,1.308-.213.437-.484.795-.812,1.073l-.864-.446c.1-.176.194-.352.286-.529.092-.178.168-.373.229-.587.061-.214.091-.458.091-.732v-1.208h1.392Z"/>
          <path d="M7.616,299.752l-1.797,6.846h-1.769l2.604-8.334h1.104l-.144,1.488ZM9.088,303.49v1.392h-3.761v-1.392h3.761ZM9.025,306.598l-1.803-6.846-.166-1.488h1.122l2.627,8.334h-1.78Z"/>
          <path d="M17.833,298.264v8.334h-1.619l-2.616-5.215v5.215h-1.591v-8.334h1.597l2.639,5.271v-5.271h1.591Z"/>
          <path d="M21.274,298.264v8.334h-1.677v-8.334h1.677ZM21.772,306.598h-1.471l.011-1.391h1.46c.404,0,.72-.072.947-.215.227-.144.387-.371.478-.684.092-.313.138-.724.138-1.231v-1.299c0-.386-.024-.713-.074-.981-.05-.27-.134-.487-.252-.652-.118-.166-.275-.288-.473-.367-.196-.078-.443-.117-.741-.117h-1.522v-1.396h1.522c.481,0,.918.078,1.312.235.393.157.73.384,1.013.684s.5.669.652,1.107.229.938.229,1.5v1.287c0,.562-.077,1.061-.229,1.497-.152.438-.369.806-.649,1.104-.28.3-.619.528-1.016.685-.397.156-.842.234-1.334.234Z"/>
          <path d="M28.309,298.264v8.334h-1.677v-8.334h1.677ZM31.4,298.264v1.396h-3.611v-1.396h3.611ZM30.925,301.635v1.352h-3.137v-1.352h3.137ZM31.411,305.207v1.391h-3.623v-1.391h3.623Z"/>
          <path d="M32.801,298.264h2.674c.557,0,1.032.096,1.425.286.394.191.694.474.904.848s.315.835.315,1.385c0,.45-.062.835-.184,1.153s-.296.584-.521.796c-.226.212-.494.381-.808.506l-.509.304h-2.17l-.006-1.391h1.506c.229,0,.419-.051.569-.151.15-.102.264-.244.338-.43s.111-.401.111-.649c0-.264-.033-.489-.101-.679-.066-.188-.171-.333-.314-.432-.143-.1-.329-.149-.558-.149h-.996v6.938h-1.678v-8.334ZM36.585,306.598l-1.528-3.715,1.757-.006,1.562,3.641v.08h-1.791Z"/>
          <path d="M41.37,298.264v8.334h-1.677v-8.334h1.677ZM44.461,298.264v1.396h-3.611v-1.396h3.611ZM43.987,301.635v1.352h-3.137v-1.352h3.137ZM44.473,305.207v1.391h-3.623v-1.391h3.623Z"/>
          <path d="M51.404,303.661h-1.712v-1.391h1.712c.236,0,.429-.054.578-.16.148-.107.257-.255.326-.443.068-.189.103-.402.103-.639,0-.24-.034-.466-.103-.676-.069-.209-.178-.377-.326-.503-.149-.126-.342-.189-.578-.189h-1.168v6.938h-1.677v-8.334h2.845c.557,0,1.036.119,1.439.355.402.236.712.562.93.976s.326.888.326,1.422c0,.542-.108,1.01-.326,1.402-.218.394-.527.698-.93.916-.403.218-.883.326-1.439.326Z"/>
          <path d="M57.311,298.264v8.334h-1.677v-8.334h1.677ZM60.402,298.264v1.396h-3.611v-1.396h3.611ZM59.927,301.635v1.352h-3.137v-1.352h3.137ZM60.413,305.207v1.391h-3.623v-1.391h3.623Z"/>
          <path d="M61.804,298.264h2.674c.557,0,1.032.096,1.425.286.394.191.694.474.904.848s.315.835.315,1.385c0,.45-.062.835-.184,1.153s-.296.584-.521.796c-.226.212-.494.381-.808.506l-.509.304h-2.17l-.006-1.391h1.506c.229,0,.419-.051.569-.151.15-.102.264-.244.338-.43s.111-.401.111-.649c0-.264-.033-.489-.101-.679-.066-.188-.171-.333-.314-.432-.143-.1-.329-.149-.558-.149h-.996v6.938h-1.678v-8.334ZM65.588,306.598l-1.528-3.715,1.757-.006,1.562,3.641v.08h-1.791Z"/>
          <path d="M72.221,304.406c0-.148-.014-.284-.04-.406s-.083-.234-.169-.338c-.086-.103-.21-.206-.372-.309-.162-.104-.373-.21-.632-.321-.31-.129-.609-.268-.899-.414-.29-.147-.551-.318-.784-.513-.232-.194-.417-.425-.552-.689-.136-.266-.203-.577-.203-.937,0-.351.063-.669.191-.955s.31-.532.544-.736.512-.361.833-.472c.32-.111.675-.166,1.064-.166.534,0,.997.111,1.388.332.392.221.694.524.91.91.216.385.323.828.323,1.328h-1.665c0-.237-.034-.445-.101-.624-.066-.18-.173-.321-.317-.424-.146-.104-.332-.154-.562-.154-.214,0-.39.043-.529.129-.139.086-.242.201-.309.346-.067.146-.101.31-.101.492,0,.138.033.26.101.366.066.107.159.204.277.292s.259.172.421.252.341.158.535.234c.378.149.712.312,1.002.49.289.177.532.376.727.595.194.22.342.467.44.741.1.275.149.588.149.938,0,.348-.061.663-.181.947-.12.285-.295.529-.523.733-.229.204-.505.361-.827.472-.323.111-.683.166-1.079.166-.386,0-.75-.054-1.094-.163-.343-.108-.646-.274-.907-.498-.261-.223-.466-.507-.615-.853-.148-.346-.223-.755-.223-1.228h1.677c0,.252.024.466.074.644s.126.318.229.424c.103.104.229.182.38.231.151.05.324.074.519.074.221,0,.397-.041.529-.123s.227-.194.283-.337c.058-.144.086-.303.086-.479Z"/>
          <path d="M78.278,303.661h-1.712v-1.391h1.712c.236,0,.429-.054.578-.16.148-.107.257-.255.326-.443.068-.189.103-.402.103-.639,0-.24-.034-.466-.103-.676-.069-.209-.178-.377-.326-.503-.149-.126-.342-.189-.578-.189h-1.168v6.938h-1.677v-8.334h2.845c.557,0,1.036.119,1.439.355.402.236.712.562.93.976s.326.888.326,1.422c0,.542-.108,1.01-.326,1.402-.218.394-.527.698-.93.916-.403.218-.883.326-1.439.326Z"/>
          <path d="M84.185,298.264v8.334h-1.677v-8.334h1.677ZM87.276,298.264v1.396h-3.611v-1.396h3.611ZM86.801,301.635v1.352h-3.137v-1.352h3.137ZM87.287,305.207v1.391h-3.623v-1.391h3.623Z"/>
          <path d="M90.349,298.264v8.334h-1.677v-8.334h1.677ZM94.487,298.264l-2.702,4.139-1.654,2.061-.32-1.678,1.07-1.785,1.568-2.736h2.038ZM92.553,306.598l-1.82-3.823,1.23-1.094,2.564,4.917h-1.975Z"/>
          <path d="M100.961,298.264v1.396h-5.77v-1.396h5.77ZM98.889,298.264v8.334h-1.665v-8.334h1.665Z"/>
          <path d="M104.08,298.264v8.334h-1.665v-8.334h1.665Z"/>
          <path d="M107.159,298.264l1.574,6.548.258,1.786h-1.225l-2.398-8.334h1.791ZM108.511,304.812l1.579-6.548h1.81l-2.416,8.334h-1.219l.246-1.786Z"/>
          <path d="M114.778,298.264v8.334h-1.677v-8.334h1.677ZM117.869,298.264v1.396h-3.611v-1.396h3.611ZM117.395,301.635v1.352h-3.137v-1.352h3.137ZM117.881,305.207v1.391h-3.623v-1.391h3.623Z"/>
          <path d="M125.092,298.264v8.334h-1.619l-2.616-5.215v5.215h-1.591v-8.334h1.597l2.639,5.271v-5.271h1.591Z"/>
          <path d="M6.272,312.33v8.334h-1.677v-8.334h1.677ZM9.196,312.33v1.396h-3.349v-1.396h3.349ZM8.882,315.873v1.386h-3.034v-1.386h3.034Z"/>
          <path d="M12.327,312.33v8.334h-1.665v-8.334h1.665Z"/>
          <path d="M19.991,312.33v8.334h-1.619l-2.616-5.215v5.215h-1.591v-8.334h1.597l2.639,5.271v-5.271h1.591Z"/>
          <path d="M23.432,312.33v8.334h-1.677v-8.334h1.677ZM23.93,320.664h-1.471l.011-1.391h1.46c.404,0,.72-.072.947-.215.227-.144.387-.371.478-.684.092-.313.138-.724.138-1.231v-1.299c0-.386-.024-.713-.074-.981-.05-.27-.134-.487-.252-.652-.118-.166-.275-.288-.473-.367-.196-.078-.443-.117-.741-.117h-1.522v-1.396h1.522c.481,0,.918.078,1.312.234.393.157.73.385,1.013.685s.5.669.652,1.107.229.938.229,1.5v1.287c0,.562-.077,1.061-.229,1.497-.152.438-.369.806-.649,1.104-.28.3-.619.528-1.016.685-.397.156-.842.234-1.334.234Z"/>
          <path d="M30.466,312.33v8.334h-1.677v-8.334h1.677ZM33.557,312.33v1.396h-3.611v-1.396h3.611ZM33.082,315.701v1.352h-3.137v-1.352h3.137ZM33.569,319.274v1.391h-3.623v-1.391h3.623Z"/>
          <path d="M40.78,312.33v8.334h-1.619l-2.616-5.215v5.215h-1.591v-8.334h1.597l2.639,5.271v-5.271h1.591Z"/>
          <path d="M42.389,319.846c0-.256.084-.468.252-.636s.396-.252.682-.252.513.084.681.252.252.38.252.636c0,.252-.084.462-.252.63s-.395.251-.681.251-.514-.083-.682-.251-.252-.378-.252-.63Z"/>
        </g>
        <g>
          <circle cx="32.188" cy="198.293" r="29.486" fill="#e5caed" stroke="#000" stroke-miterlimit="10" stroke-width="2.761"/>
          <g id="e" data-name="line">
            <path d="M26.146,187.365c3.18-12.063,23.982-8.08,16.203,11.232-10.034,24.613-21.919,17.192-19.813,9.162" fill="none" stroke="#000" stroke-linecap="round" stroke-linejoin="round" stroke-width="1.375"/>
            <path d="M32.32,193.125c3.052,4.814,5.087,9.312.961,11.175-.961.394-1.978.284-3.014.807-1.055.497-1.251.912-2.502,2.259-1.762,1.418-3.968-1.063-2.722-2.536,2.113-2.335,4.434-2.701,3.209-4.957-.838-1.516-.279-3.632,2.407-2.858" fill="none" stroke="#000" stroke-linecap="round" stroke-linejoin="round" stroke-width="1.375"/>
            <path d="M28.592,190.331c2.733-10.917,17.076-7.054,10.48,7.646" fill="none" stroke="#000" stroke-linecap="round" stroke-linejoin="round" stroke-width="1.375"/>
          </g>
        </g>
      </g>
      <g>
        <g>
          <path d="M6.537,440.507v13.334h-2.912v-13.334h2.912ZM13.15,440.507l-4.259,6.686-2.628,3.306-.559-2.82,1.648-2.895,2.243-4.276h3.554ZM9.715,453.841l-2.665-6.062,2.207-1.795,3.901,7.857h-3.443Z"/>
          <path d="M23.946,446.157v2.125c0,.946-.116,1.778-.348,2.495-.232.718-.563,1.315-.994,1.795-.43.479-.941.841-1.533,1.085-.593.244-1.252.367-1.979.367s-1.388-.123-1.982-.367c-.596-.244-1.11-.605-1.544-1.085s-.768-1.077-1.002-1.795c-.235-.717-.354-1.549-.354-2.495v-2.125c0-.959.116-1.803.349-2.532.231-.729.564-1.337.998-1.822s.948-.854,1.543-1.104c.596-.251,1.256-.376,1.983-.376.72,0,1.378.125,1.973.376.596.25,1.108.618,1.539,1.104s.763,1.093.998,1.822.353,1.573.353,2.532ZM21.026,448.282v-2.144c0-.61-.042-1.134-.124-1.57s-.204-.792-.366-1.067c-.162-.274-.365-.476-.609-.604-.244-.128-.524-.192-.842-.192-.336,0-.626.064-.87.192-.244.129-.446.33-.604.604-.159.275-.278.631-.357,1.067s-.119.96-.119,1.57v2.144c0,.598.04,1.111.119,1.538.079.428.201.775.366,1.044s.369.467.613.596c.244.128.531.192.861.192.317,0,.599-.064.843-.192.244-.129.447-.327.608-.596.162-.269.282-.616.362-1.044.079-.427.119-.94.119-1.538Z"/>
          <path d="M26.392,440.507h2.445l.421,9.479v3.855h-2.866v-13.334ZM27.647,440.507h2.444l2.428,9.176,2.399-9.176h2.298l-3.681,13.334h-2.052l-3.837-13.334ZM36.172,440.507h2.455v13.334h-2.876v-3.855l.421-9.479Z"/>
          <path d="M41.275,440.507h2.445l.421,9.479v3.855h-2.866v-13.334ZM42.529,440.507h2.444l2.428,9.176,2.399-9.176h2.298l-3.681,13.334h-2.052l-3.837-13.334ZM51.055,440.507h2.455v13.334h-2.876v-3.855l.421-9.479Z"/>
          <path d="M62.091,440.507h2.912v9.112c0,1.038-.188,1.88-.563,2.527-.375.647-.896,1.122-1.562,1.424-.665.303-1.438.454-2.316.454-.886,0-1.663-.151-2.331-.454-.669-.302-1.192-.776-1.57-1.424-.379-.647-.568-1.489-.568-2.527v-9.112h2.922v9.112c0,.562.058.992.174,1.291s.288.501.518.604c.229.104.514.155.856.155s.625-.052.852-.155c.226-.104.395-.306.508-.604s.17-.729.17-1.291v-9.112Z"/>
          <path d="M77.055,440.507v13.334h-2.857l-3.773-8.297v8.297h-2.839v-13.334h2.848l3.792,8.343v-8.343h2.83Z"/>
          <path d="M82.733,440.507v13.334h-2.903v-13.334h2.903Z"/>
          <path d="M92.945,440.507v2.362h-7.821v-2.362h7.821ZM93.897,442.118l-6.631,11.723h-2.061v-1.657l6.704-11.677h1.987v1.611ZM93.951,451.487v2.354h-8.041v-2.354h8.041Z"/>
          <path d="M99.19,440.507v13.334h-2.903v-13.334h2.903Z"/>
          <path d="M104.877,440.507v13.334h-2.912v-13.334h2.912ZM109.731,440.507v2.362h-5.806v-2.362h5.806ZM108.962,445.854v2.271h-5.037v-2.271h5.037ZM109.731,451.487v2.354h-5.806v-2.354h5.806Z"/>
          <path d="M111.81,440.507h4.424c.891,0,1.657.152,2.299.458.641.305,1.132.757,1.474,1.355.342.598.514,1.34.514,2.225,0,.733-.097,1.355-.289,1.869-.192.513-.466.937-.819,1.272-.354.336-.772.607-1.255.815l-.925.549h-3.517l-.019-2.362h2.464c.329,0,.601-.078.814-.233.214-.156.374-.376.481-.659.106-.284.16-.618.16-1.003,0-.403-.051-.748-.151-1.035s-.252-.507-.453-.659-.461-.229-.778-.229h-1.512v10.972h-2.912v-13.334ZM117.79,453.841l-2.399-5.926h3.059l2.464,5.788v.138h-3.123Z"/>
          <path d="M125.876,440.507v13.334h-2.912v-13.334h2.912ZM130.73,440.507v2.362h-5.806v-2.362h5.806ZM129.961,445.854v2.271h-5.037v-2.271h5.037ZM130.73,451.487v2.354h-5.806v-2.354h5.806Z"/>
          <path d="M142.27,440.507v13.334h-2.857l-3.773-8.297v8.297h-2.839v-13.334h2.848l3.792,8.343v-8.343h2.83Z"/>
        </g>
        <g>
          <rect x="3.125" y="463.747" width="153.98" height="42.582" fill="none"/>
          <path d="M4.008,464.204h1.402l.211,5.495v2.839h-1.613v-8.334ZM4.603,464.204h1.466l1.705,5.701,1.694-5.701h1.3l-2.37,8.334h-1.253l-2.542-8.334ZM10.126,464.204h1.408v8.334h-1.614v-2.839l.206-5.495Z"/>
          <path d="M14.986,464.204v8.334h-1.677v-8.334h1.677ZM18.076,464.204v1.396h-3.611v-1.396h3.611ZM17.602,467.575v1.352h-3.137v-1.352h3.137ZM18.088,471.147v1.391h-3.623v-1.391h3.623Z"/>
          <path d="M25.3,464.204v8.334h-1.619l-2.616-5.215v5.215h-1.591v-8.334h1.597l2.639,5.271v-5.271h1.591Z"/>
          <path d="M30.589,470.346c0-.148-.014-.284-.04-.406s-.083-.234-.169-.338c-.086-.103-.21-.206-.372-.309-.162-.104-.373-.21-.632-.321-.31-.129-.609-.268-.899-.414-.29-.147-.551-.318-.784-.513-.232-.194-.417-.425-.552-.689-.136-.266-.203-.577-.203-.937,0-.351.063-.669.191-.955s.31-.532.544-.736.512-.361.833-.472c.32-.11.675-.166,1.064-.166.534,0,.997.11,1.388.332.392.221.694.524.91.91.216.385.323.828.323,1.328h-1.665c0-.237-.034-.445-.101-.624-.066-.18-.173-.321-.317-.424-.146-.104-.332-.154-.562-.154-.214,0-.39.043-.529.129-.139.086-.242.201-.309.346-.067.146-.101.31-.101.492,0,.138.033.26.101.366.066.107.159.204.277.292s.259.172.421.252.341.158.535.234c.378.149.712.312,1.002.49.289.177.532.376.727.595.194.22.342.467.44.741.1.275.149.588.149.938,0,.348-.061.663-.181.947-.12.285-.295.529-.523.733-.229.204-.505.361-.827.472-.323.111-.683.166-1.079.166-.386,0-.75-.054-1.094-.163-.343-.108-.646-.274-.907-.498-.261-.223-.466-.507-.615-.853-.148-.346-.223-.755-.223-1.228h1.677c0,.252.024.466.074.644s.126.318.229.424c.103.104.229.182.38.231.151.05.324.074.519.074.221,0,.397-.041.529-.123s.227-.194.283-.337c.058-.144.086-.303.086-.479Z"/>
          <path d="M37.772,469.762h1.666c-.023.626-.148,1.153-.378,1.583-.229.43-.555.755-.976.976-.422.222-.931.332-1.525.332-.462,0-.872-.077-1.23-.231-.359-.154-.664-.383-.916-.685-.252-.301-.442-.674-.569-1.118-.128-.445-.192-.955-.192-1.531v-1.426c0-.576.068-1.088.203-1.536.136-.449.33-.823.584-1.125s.562-.529.922-.685c.36-.154.768-.231,1.222-.231.606,0,1.114.113,1.522.341.408.227.725.56.947.999.224.438.358.973.403,1.603h-1.677c-.008-.397-.051-.709-.129-.937-.078-.227-.201-.386-.369-.478s-.4-.138-.698-.138c-.222,0-.412.038-.572.115-.16.076-.292.2-.395.371-.104.172-.179.396-.227.673-.048.277-.071.615-.071,1.017v1.437c0,.393.021.727.062,1.001.042.275.109.5.2.676.092.176.217.304.375.384s.36.12.604.12c.282,0,.51-.042.684-.126s.303-.234.387-.452.132-.526.143-.928Z"/>
          <path d="M42.57,464.204v8.334h-1.677v-8.334h1.677ZM45.512,467.575v1.392h-3.418v-1.392h3.418ZM46.725,464.204v8.334h-1.66v-8.334h1.66Z"/>
          <path d="M50.176,464.204v8.334h-1.677v-8.334h1.677ZM53.267,464.204v1.396h-3.611v-1.396h3.611ZM52.792,467.575v1.352h-3.137v-1.352h3.137ZM53.278,471.147v1.391h-3.623v-1.391h3.623Z"/>
          <path d="M60.49,464.204v8.334h-1.619l-2.616-5.215v5.215h-1.591v-8.334h1.597l2.639,5.271v-5.271h1.591Z"/>
          <path d="M66.632,464.204v8.334h-1.677v-8.334h1.677ZM69.723,464.204v1.396h-3.611v-1.396h3.611ZM69.248,467.575v1.352h-3.137v-1.352h3.137ZM69.735,471.147v1.391h-3.623v-1.391h3.623Z"/>
          <path d="M71.124,464.204h2.674c.557,0,1.032.096,1.425.286.394.191.694.474.904.848s.315.835.315,1.385c0,.45-.062.835-.184,1.153s-.296.584-.521.796c-.226.212-.494.381-.808.506l-.509.304h-2.17l-.006-1.391h1.506c.229,0,.419-.051.569-.151.15-.102.264-.244.338-.43s.111-.401.111-.649c0-.264-.033-.489-.101-.679-.066-.188-.171-.333-.314-.432-.143-.1-.329-.149-.558-.149h-.996v6.938h-1.678v-8.334ZM74.908,472.538l-1.528-3.715,1.757-.006,1.562,3.641v.08h-1.791Z"/>
          <path d="M78.022,464.204h2.674c.557,0,1.032.096,1.425.286.394.191.694.474.904.848s.315.835.315,1.385c0,.45-.062.835-.184,1.153s-.296.584-.521.796c-.226.212-.494.381-.808.506l-.509.304h-2.17l-.006-1.391h1.506c.229,0,.419-.051.569-.151.15-.102.264-.244.338-.43s.111-.401.111-.649c0-.264-.033-.489-.101-.679-.066-.188-.171-.333-.314-.432-.143-.1-.329-.149-.558-.149h-.996v6.938h-1.678v-8.334ZM81.806,472.538l-1.528-3.715,1.757-.006,1.562,3.641v.08h-1.791Z"/>
          <path d="M86.591,464.204v8.334h-1.677v-8.334h1.677ZM89.682,464.204v1.396h-3.611v-1.396h3.611ZM89.207,467.575v1.352h-3.137v-1.352h3.137ZM89.694,471.147v1.391h-3.623v-1.391h3.623Z"/>
          <path d="M92.818,464.204v8.334h-1.665v-8.334h1.665Z"/>
          <path d="M98.628,469.762h1.666c-.023.626-.148,1.153-.378,1.583-.229.43-.555.755-.976.976-.422.222-.931.332-1.525.332-.462,0-.872-.077-1.23-.231-.359-.154-.664-.383-.916-.685-.252-.301-.442-.674-.569-1.118-.128-.445-.192-.955-.192-1.531v-1.426c0-.576.068-1.088.203-1.536.136-.449.33-.823.584-1.125s.562-.529.922-.685c.36-.154.768-.231,1.222-.231.606,0,1.114.113,1.522.341.408.227.725.56.947.999.224.438.358.973.403,1.603h-1.677c-.008-.397-.051-.709-.129-.937-.078-.227-.201-.386-.369-.478s-.4-.138-.698-.138c-.222,0-.412.038-.572.115-.16.076-.292.2-.395.371-.104.172-.179.396-.227.673-.048.277-.071.615-.071,1.017v1.437c0,.393.021.727.062,1.001.042.275.109.5.2.676.092.176.217.304.375.384s.36.12.604.12c.282,0,.51-.042.684-.126s.303-.234.387-.452.132-.526.143-.928Z"/>
          <path d="M103.425,464.204v8.334h-1.677v-8.334h1.677ZM106.367,467.575v1.392h-3.418v-1.392h3.418ZM107.58,464.204v8.334h-1.66v-8.334h1.66Z"/>
          <path d="M111.031,464.204v8.334h-1.677v-8.334h1.677ZM114.122,464.204v1.396h-3.611v-1.396h3.611ZM113.648,467.575v1.352h-3.137v-1.352h3.137ZM114.134,471.147v1.391h-3.623v-1.391h3.623Z"/>
          <path d="M121.346,464.204v8.334h-1.619l-2.616-5.215v5.215h-1.591v-8.334h1.597l2.639,5.271v-5.271h1.591Z"/>
          <path d="M124.426,471.13v1.122c0,.435-.107.871-.321,1.308-.213.438-.484.795-.812,1.073l-.864-.446c.1-.176.194-.352.286-.529s.168-.373.229-.587c.061-.214.091-.458.091-.732v-1.208h1.392Z"/>
          <path d="M5.249,478.27l1.574,6.548.258,1.786h-1.225l-2.398-8.334h1.791ZM6.601,484.818l1.579-6.548h1.81l-2.416,8.334h-1.219l.246-1.786Z"/>
          <path d="M12.868,478.27v8.334h-1.677v-8.334h1.677ZM15.959,478.27v1.396h-3.611v-1.396h3.611ZM15.485,481.641v1.352h-3.137v-1.352h3.137ZM15.971,485.214v1.391h-3.623v-1.391h3.623Z"/>
          <path d="M17.361,478.27h2.674c.557,0,1.032.096,1.425.286.394.191.694.474.904.848s.315.835.315,1.385c0,.45-.062.835-.184,1.153s-.296.584-.521.796c-.226.212-.494.381-.808.506l-.509.304h-2.17l-.006-1.391h1.506c.229,0,.419-.051.569-.151.15-.102.264-.244.338-.43s.111-.401.111-.649c0-.264-.033-.489-.101-.679-.066-.188-.171-.333-.314-.432-.143-.1-.329-.149-.558-.149h-.996v6.938h-1.678v-8.334ZM21.145,486.604l-1.528-3.715,1.757-.006,1.562,3.641v.08h-1.791Z"/>
          <path d="M25.93,478.27v8.334h-1.677v-8.334h1.677ZM29.021,478.27v1.396h-3.611v-1.396h3.611ZM28.546,481.641v1.352h-3.137v-1.352h3.137ZM29.032,485.214v1.391h-3.623v-1.391h3.623Z"/>
          <path d="M32.157,478.27v8.334h-1.665v-8.334h1.665Z"/>
          <path d="M39.821,478.27v8.334h-1.619l-2.616-5.215v5.215h-1.591v-8.334h1.597l2.639,5.271v-5.271h1.591Z"/>
          <path d="M43.262,478.27v8.334h-1.677v-8.334h1.677ZM46.187,478.27v1.396h-3.349v-1.396h3.349ZM45.872,481.813v1.386h-3.034v-1.386h3.034Z"/>
          <path d="M49.5,479.759l-1.797,6.846h-1.769l2.604-8.334h1.104l-.144,1.488ZM50.972,483.496v1.392h-3.761v-1.392h3.761ZM50.908,486.604l-1.803-6.846-.166-1.488h1.122l2.627,8.334h-1.78Z"/>
          <path d="M57.742,483.828h1.666c-.023.626-.148,1.153-.378,1.583-.229.43-.555.755-.976.976-.422.222-.931.332-1.525.332-.462,0-.872-.077-1.23-.231-.359-.154-.664-.383-.916-.685-.252-.301-.442-.674-.569-1.118-.128-.445-.192-.955-.192-1.531v-1.426c0-.576.068-1.088.203-1.536.136-.449.33-.823.584-1.125s.562-.529.922-.685c.36-.154.768-.231,1.222-.231.606,0,1.114.113,1.522.341.408.227.725.56.947.999.224.438.358.973.403,1.603h-1.677c-.008-.397-.051-.709-.129-.937-.078-.227-.201-.386-.369-.478s-.4-.138-.698-.138c-.222,0-.412.038-.572.115-.16.076-.292.2-.395.371-.104.172-.179.396-.227.673-.048.277-.071.615-.071,1.017v1.437c0,.393.021.727.062,1.001.042.275.109.5.2.676.092.176.217.304.375.384s.36.12.604.12c.282,0,.51-.042.684-.126s.303-.234.387-.452.132-.526.143-.928Z"/>
          <path d="M62.539,478.27v8.334h-1.677v-8.334h1.677ZM65.482,481.641v1.392h-3.418v-1.392h3.418ZM66.695,478.27v8.334h-1.66v-8.334h1.66Z"/>
          <path d="M70.147,478.27v8.334h-1.677v-8.334h1.677ZM73.237,478.27v1.396h-3.611v-1.396h3.611ZM72.763,481.641v1.352h-3.137v-1.352h3.137ZM73.249,485.214v1.391h-3.623v-1.391h3.623Z"/>
          <path d="M80.46,478.27v8.334h-1.619l-2.616-5.215v5.215h-1.591v-8.334h1.597l2.639,5.271v-5.271h1.591Z"/>
          <path d="M83.54,485.196v1.122c0,.435-.107.871-.321,1.308-.213.438-.484.795-.812,1.073l-.864-.446c.1-.176.194-.352.286-.529s.168-.373.229-.587c.061-.214.091-.458.091-.732v-1.208h1.392Z"/>
          <path d="M91.319,484.412c0-.148-.014-.284-.04-.406s-.083-.234-.169-.338c-.086-.103-.21-.206-.372-.309-.162-.104-.373-.21-.632-.321-.31-.129-.609-.268-.899-.414-.29-.147-.551-.318-.784-.513-.232-.194-.417-.425-.552-.689-.136-.266-.203-.577-.203-.937,0-.351.063-.669.191-.955s.31-.532.544-.736.512-.361.833-.472c.32-.11.675-.166,1.064-.166.534,0,.997.11,1.388.332.392.221.694.524.91.91.216.385.323.828.323,1.328h-1.665c0-.237-.034-.445-.101-.624-.066-.18-.173-.321-.317-.424-.146-.104-.332-.154-.562-.154-.214,0-.39.043-.529.129-.139.086-.242.201-.309.346-.067.146-.101.31-.101.492,0,.138.033.26.101.366.066.107.159.204.277.292s.259.172.421.252.341.158.535.234c.378.149.712.312,1.002.49.289.177.532.376.727.595.194.22.342.467.44.741.1.275.149.588.149.938,0,.348-.061.663-.181.947-.12.285-.295.529-.523.733-.229.204-.505.361-.827.472-.323.111-.683.166-1.079.166-.386,0-.75-.054-1.094-.163-.343-.108-.646-.274-.907-.498-.261-.223-.466-.507-.615-.853-.148-.346-.223-.755-.223-1.228h1.677c0,.252.024.466.074.644s.126.318.229.424c.103.104.229.182.38.231.151.05.324.074.519.074.221,0,.397-.041.529-.123s.227-.194.283-.337c.058-.144.086-.303.086-.479Z"/>
          <path d="M99.922,478.27v1.396h-5.77v-1.396h5.77ZM97.85,478.27v8.334h-1.665v-8.334h1.665Z"/>
          <path d="M103.041,478.27v8.334h-1.665v-8.334h1.665Z"/>
          <path d="M104.879,478.27h1.402l.211,5.495v2.839h-1.613v-8.334ZM105.474,478.27h1.466l1.705,5.701,1.694-5.701h1.3l-2.37,8.334h-1.253l-2.542-8.334ZM110.997,478.27h1.408v8.334h-1.614v-2.839l.206-5.495Z"/>
          <path d="M114.18,478.27h1.402l.211,5.495v2.839h-1.613v-8.334ZM114.775,478.27h1.466l1.705,5.701,1.694-5.701h1.3l-2.37,8.334h-1.253l-2.542-8.334ZM120.298,478.27h1.408v8.334h-1.614v-2.839l.206-5.495Z"/>
          <path d="M125.158,478.27v8.334h-1.677v-8.334h1.677ZM128.249,478.27v1.396h-3.611v-1.396h3.611ZM127.775,481.641v1.352h-3.137v-1.352h3.137ZM128.261,485.214v1.391h-3.623v-1.391h3.623Z"/>
          <path d="M135.472,478.27v8.334h-1.619l-2.616-5.215v5.215h-1.591v-8.334h1.597l2.639,5.271v-5.271h1.591Z"/>
          <path d="M5.249,492.338l1.574,6.548.258,1.786h-1.225l-2.398-8.334h1.791ZM6.601,498.886l1.579-6.548h1.81l-2.416,8.334h-1.219l.246-1.786Z"/>
          <path d="M12.868,492.338v8.334h-1.677v-8.334h1.677ZM15.959,492.338v1.396h-3.611v-1.396h3.611ZM15.485,495.709v1.352h-3.137v-1.352h3.137ZM15.971,499.281v1.391h-3.623v-1.391h3.623Z"/>
          <path d="M17.361,492.338h2.674c.557,0,1.032.096,1.425.286.394.191.694.474.904.848s.315.835.315,1.385c0,.45-.062.835-.184,1.153s-.296.584-.521.796c-.226.212-.494.381-.808.506l-.509.304h-2.17l-.006-1.391h1.506c.229,0,.419-.051.569-.151.15-.102.264-.244.338-.43s.111-.401.111-.649c0-.264-.033-.489-.101-.679-.066-.188-.171-.333-.314-.432-.143-.1-.329-.149-.558-.149h-.996v6.938h-1.678v-8.334ZM21.145,500.672l-1.528-3.715,1.757-.006,1.562,3.641v.08h-1.791Z"/>
          <path d="M27.778,498.479c0-.148-.014-.284-.04-.406s-.083-.234-.169-.338c-.086-.103-.21-.206-.372-.309-.162-.104-.373-.21-.632-.321-.31-.129-.609-.268-.899-.414-.29-.147-.551-.318-.784-.513-.232-.194-.417-.425-.552-.689-.136-.266-.203-.577-.203-.937,0-.351.063-.669.191-.955s.31-.532.544-.736.512-.361.833-.472c.32-.11.675-.166,1.064-.166.534,0,.997.11,1.388.332.392.221.694.524.91.91.216.385.323.828.323,1.328h-1.665c0-.237-.034-.445-.101-.624-.066-.18-.173-.321-.317-.424-.146-.104-.332-.154-.562-.154-.214,0-.39.043-.529.129-.139.086-.242.201-.309.346-.067.146-.101.31-.101.492,0,.138.033.26.101.366.066.107.159.204.277.292s.259.172.421.252.341.158.535.234c.378.149.712.312,1.002.49.289.177.532.376.727.595.194.22.342.467.44.741.1.275.149.588.149.938,0,.348-.061.663-.181.947-.12.285-.295.529-.523.733-.229.204-.505.361-.827.472-.323.111-.683.166-1.079.166-.386,0-.75-.054-1.094-.163-.343-.108-.646-.274-.907-.498-.261-.223-.466-.507-.615-.853-.148-.346-.223-.755-.223-1.228h1.677c0,.252.024.466.074.644s.126.318.229.424c.103.104.229.182.38.231.151.05.324.074.519.074.221,0,.397-.041.529-.123s.227-.194.283-.337c.058-.144.086-.303.086-.479Z"/>
          <path d="M36.382,492.338v1.396h-5.77v-1.396h5.77ZM34.31,492.338v8.334h-1.665v-8.334h1.665Z"/>
          <path d="M40.102,493.826l-1.797,6.846h-1.769l2.604-8.334h1.104l-.144,1.488ZM37.733,491.079c0-.202.074-.374.223-.516.149-.141.338-.212.567-.212s.418.071.569.212c.15.142.226.313.226.516,0,.206-.075.378-.226.518-.151.14-.341.209-.569.209s-.418-.069-.567-.209c-.148-.14-.223-.312-.223-.518ZM41.573,497.563v1.392h-3.761v-1.392h3.761ZM41.51,500.672l-1.803-6.846-.166-1.488h1.122l2.627,8.334h-1.78ZM40.526,491.085c0-.206.073-.38.221-.521.146-.141.337-.212.569-.212.229,0,.419.071.569.212.15.142.227.315.227.521,0,.202-.076.372-.227.512s-.341.209-.569.209c-.232,0-.423-.069-.569-.209-.147-.14-.221-.31-.221-.512Z"/>
          <path d="M44.497,492.338h2.674c.557,0,1.032.096,1.425.286.394.191.694.474.904.848s.315.835.315,1.385c0,.45-.062.835-.184,1.153s-.296.584-.521.796c-.226.212-.494.381-.808.506l-.509.304h-2.17l-.006-1.391h1.506c.229,0,.419-.051.569-.151.15-.102.264-.244.338-.43s.111-.401.111-.649c0-.264-.033-.489-.101-.679-.066-.188-.171-.333-.314-.432-.143-.1-.329-.149-.558-.149h-.996v6.938h-1.678v-8.334ZM48.281,500.672l-1.528-3.715,1.757-.006,1.562,3.641v.08h-1.791Z"/>
          <path d="M53.067,492.338v8.334h-1.677v-8.334h1.677ZM57.205,492.338l-2.702,4.139-1.654,2.061-.32-1.678,1.07-1.785,1.568-2.736h2.038ZM55.271,500.672l-1.82-3.823,1.23-1.094,2.564,4.917h-1.975Z"/>
          <path d="M59.964,492.338v8.334h-1.677v-8.334h1.677ZM63.055,492.338v1.396h-3.611v-1.396h3.611ZM62.58,495.709v1.352h-3.137v-1.352h3.137ZM63.067,499.281v1.391h-3.623v-1.391h3.623Z"/>
          <path d="M70.278,492.338v8.334h-1.619l-2.616-5.215v5.215h-1.591v-8.334h1.597l2.639,5.271v-5.271h1.591Z"/>
          <path d="M71.886,499.853c0-.256.084-.468.252-.636s.396-.252.682-.252.513.084.681.252.252.38.252.636c0,.252-.084.462-.252.63s-.395.251-.681.251-.514-.083-.682-.251-.252-.378-.252-.63Z"/>
        </g>
        <g>
          <circle cx="32.188" cy="392.368" r="29.486" fill="#e5caed" stroke="#000" stroke-miterlimit="10" stroke-width="2.761"/>
          <g id="f" data-name="line">
            <path d="M20.109,384.52s15.509.806,25.024-5.719" fill="none" stroke="#000" stroke-linecap="round" stroke-linejoin="round" stroke-width="1.251"/>
            <path d="M20.109,396.344s15.509-.806,25.024,5.719" fill="none" stroke="#000" stroke-linecap="round" stroke-linejoin="round" stroke-width="1.251"/>
            <path d="M15.861,384.52h4.246v11.655h-4.246c-.691,0-1.251-.56-1.251-1.251v-9.152c0-.691.56-1.251,1.251-1.251Z" fill="none" stroke="#000" stroke-linecap="round" stroke-linejoin="round" stroke-width="1.251"/>
            <rect x="45.133" y="377.832" width="3.754" height="25.03" rx="1.251" ry="1.251" fill="none" stroke="#000" stroke-linecap="round" stroke-linejoin="round" stroke-width="1.251"/>
            <path d="M20.106,396.369l.548,2.908h-.938l.978,5.192h.313l.238,1.261-3.425.047-1.774-9.409" fill="none" stroke="#000" stroke-linecap="round" stroke-linejoin="round" stroke-width="1.251"/>
            <path d="M20.109,384.52s15.509.806,25.024-5.719" fill="none" stroke="#000" stroke-linecap="round" stroke-linejoin="round" stroke-width="1.251"/>
            <path d="M20.109,396.344s15.509-.806,25.024,5.719" fill="none" stroke="#000" stroke-linecap="round" stroke-linejoin="round" stroke-width="1.251"/>
            <path d="M14.61,386.278h-1.555c-.691,0-1.251.56-1.251,1.251v5.582c0,.691.56,1.251,1.251,1.251h1.555" fill="none" stroke="#000" stroke-linecap="round" stroke-linejoin="round" stroke-width="1.251"/>
            <line x1="16.355" y1="393.916" x2="18.232" y2="393.916" fill="none" stroke="#000" stroke-linecap="round" stroke-linejoin="round" stroke-width="1.251"/>
          </g>
        </g>
      </g>
    </g>
  </g>
</svg>