<?xml version="1.0" encoding="UTF-8"?>
<svg id="b" data-name="Layer 2" xmlns="http://www.w3.org/2000/svg" viewBox="0 0 229.442 303.352">
  <g id="c" data-name="Layer 1">
    <g>
      <path d="M59.479,32.543l13.276-26.272c1.917-3.793,5.156-5.862,8.018-5.123l143.124,36.968c2.84.734,4.668,4.068,4.537,8.276l-.92,29.554c-60.341,3.851-116.303-10.831-168.036-43.403Z" fill="#e1a851" stroke="#000" stroke-linejoin="round" stroke-width="2"/>
      <g>
        <polygon points="58.823 53.9 68.232 17.475 222.926 57.432 214.417 94.089 58.823 53.9" fill="#fff" stroke="#000" stroke-linejoin="round" stroke-width="2"/>
        <polygon points="60.865 58.908 70.273 22.483 224.968 62.44 216.459 99.097 60.865 58.908" fill="#fff" stroke="#000" stroke-linejoin="round" stroke-width="2"/>
        <polygon points="56.654 63.139 66.063 26.714 220.757 66.67 212.248 103.328 56.654 63.139" fill="#fff" stroke="#000" stroke-linejoin="round" stroke-width="2"/>
      </g>
      <polygon points="169.036 302.352 1 258.949 59.464 32.601 138.017 55.534 227.501 76.004 169.036 302.352" fill="#e1a851" stroke="#000" stroke-linejoin="round" stroke-width="2"/>
      <path d="M1,258.949l13.952-17.477c1.183-1.482,3.126-2.13,4.962-1.656l70.92,18.318,71.755,18.534c1.897.49,3.307,2.081,3.565,4.023l2.882,21.661" fill="#e1a851" stroke="#000" stroke-linejoin="round" stroke-width="2"/>
      <line x1="138.017" y1="55.534" x2="86.009" y2="256.887" fill="#e1a851" stroke="#000" stroke-linejoin="round" stroke-width="2"/>
      <g>
        <path d="M140.132,73.308c-2.491-.643-3.994-3.193-3.35-5.684s3.193-3.994,5.684-3.351c2.491.643,3.994,3.193,3.351,5.685-.643,2.491-3.193,3.994-5.685,3.351ZM141.941,66.305c-1.37-.354-2.772.473-3.127,1.843s.473,2.773,1.843,3.127c1.37.354,2.773-.473,3.127-1.843s-.473-2.773-1.843-3.127Z" fill="#ddd" stroke="#565656" stroke-miterlimit="10"/>
        <path d="M138.099,81.18c-2.491-.643-3.994-3.193-3.35-5.684.643-2.491,3.193-3.994,5.684-3.351s3.994,3.193,3.351,5.685c-.643,2.491-3.193,3.994-5.685,3.351ZM139.908,74.177c-1.37-.354-2.772.473-3.127,1.843-.354,1.371.473,2.773,1.843,3.127s2.773-.473,3.127-1.843c.354-1.371-.473-2.773-1.843-3.127Z" fill="#ddd" stroke="#565656" stroke-miterlimit="10"/>
        <rect x="128.376" y="71.3" width="23.796" height="2.924" transform="translate(22.654 -32.769) rotate(14.483)" fill="#ddd" stroke="#565656" stroke-miterlimit="10"/>
      </g>
      <g>
        <path d="M151.311,33.732c-.311,0-.622-.04-.926-.118-1.97-.509-3.159-2.526-2.649-4.497.42-1.63,1.889-2.769,3.569-2.769.311,0,.622.04.926.118.955.247,1.756.85,2.257,1.699s.641,1.842.394,2.797c-.421,1.63-1.89,2.769-3.57,2.769Z" fill="#000" stroke-width="0"/>
        <path d="M151.305,26.849h0c.268,0,.538.034.801.103.825.213,1.518.735,1.951,1.469.433.734.554,1.593.341,2.418-.364,1.409-1.633,2.394-3.086,2.394-.268,0-.538-.034-.801-.103-.825-.213-1.518-.735-1.95-1.469-.433-.734-.554-1.593-.341-2.418.364-1.409,1.633-2.394,3.086-2.394M151.305,25.849c-1.865,0-3.566,1.254-4.054,3.144-.579,2.241.769,4.526,3.009,5.105.352.091.704.134,1.051.134,1.865,0,3.566-1.254,4.054-3.144.579-2.241-.769-4.527-3.01-5.105-.352-.091-.704-.134-1.051-.134h0Z" fill="#000" stroke-width="0"/>
      </g>
    </g>
  </g>
</svg>