<?xml version="1.0" encoding="UTF-8"?>
<svg xmlns="http://www.w3.org/2000/svg" xmlns:xlink="http://www.w3.org/1999/xlink" viewBox="0 0 1067.541 704.829">
  <defs>
    <clipPath id="c">
      <rect width="1067.541" height="704.829" fill="none" stroke-width="0"/>
    </clipPath>
  </defs>
  <g id="b" data-name="Layer 1">
    <g clip-path="url(#c)">
      <g>
        <g>
          <rect x="-270.799" y="362.12" width="1502.656" height="342.708" fill="#939393" stroke-width="0"/>
          <rect x="-270.799" width="1502.656" height="362.12" fill="#e8e8e8" stroke-width="0"/>
          <rect x="121.462" width="225.248" height="362.12" fill="#afafaf" opacity=".37" stroke-width="0"/>
          <rect x="611.181" y="91.984" width="456.36" height="270.207" fill="#afafaf" opacity=".37" stroke-width="0"/>
          <rect x="-59.626" y="77.537" width="311.848" height="328.598" fill="#c9c9c9" opacity=".37" stroke-width="0"/>
          <rect x="480.529" y="30.999" width="404.214" height="379.753" fill="#c9c9c9" opacity=".37" stroke-width="0"/>
        </g>
        <polygon points="252.222 107.414 1042.382 206.127 1043.38 244.283 532.873 199.286 532.873 572.353 252.222 607.414 252.222 107.414" fill="#fff" stroke="#000" stroke-linejoin="bevel" stroke-width="5"/>
        <g>
          <g>
            <polygon points="600.827 606.989 1198.864 514.637 1198.864 248.283 600.827 188.617 600.827 606.989" fill="#fff" stroke="#000" stroke-linejoin="bevel" stroke-width="5"/>
            <polygon points="600.581 190.819 600.581 427.722 1198.763 400.522 1198.763 249.708 600.581 190.819" fill="#fff" stroke="#000" stroke-linejoin="bevel" stroke-width="5"/>
            <polygon points="635.568 458.694 1178.014 423.679 1178.242 478.927 635.41 543.936 635.568 458.694" fill="#fff" stroke="#000" stroke-linejoin="bevel" stroke-width="5"/>
          </g>
          <g>
            <polygon points="600.334 188.582 742.633 202.798 742.633 274.633 600.334 267.213 600.334 188.582" fill="#fff" stroke="#000" stroke-miterlimit="10" stroke-width="2"/>
            <polygon points="742.633 202.798 862.29 214.753 862.29 280.872 742.633 274.633 742.633 202.798" fill="#fff" stroke="#000" stroke-miterlimit="10" stroke-width="2"/>
            <polygon points="862.29 214.753 964.312 224.945 964.312 286.192 862.29 280.872 862.29 214.753" fill="#fff" stroke="#000" stroke-miterlimit="10" stroke-width="2"/>
            <polygon points="964.312 224.945 1052.329 233.738 1052.329 290.782 964.312 286.192 964.312 224.945" fill="#fff" stroke="#000" stroke-miterlimit="10" stroke-width="2"/>
            <polygon points="1052.329 233.738 1129.041 241.402 1129.041 294.782 1052.329 290.782 1052.329 233.738" fill="#fff" stroke="#000" stroke-miterlimit="10" stroke-width="2"/>
            <polygon points="600.334 267.213 742.633 274.633 742.633 346.468 600.334 345.844 600.334 267.213" fill="#fff" stroke="#000" stroke-miterlimit="10" stroke-width="2"/>
            <polygon points="742.633 274.633 862.29 280.872 862.29 346.992 742.633 346.468 742.633 274.633" fill="#fff" stroke="#000" stroke-miterlimit="10" stroke-width="2"/>
            <polygon points="862.29 280.872 964.312 286.192 964.312 347.44 862.29 346.992 862.29 280.872" fill="#fff" stroke="#000" stroke-miterlimit="10" stroke-width="2"/>
            <polygon points="964.312 286.192 1052.329 290.782 1052.329 347.826 964.312 347.44 964.312 286.192" fill="#fff" stroke="#000" stroke-miterlimit="10" stroke-width="2"/>
            <polygon points="1052.329 290.782 1129.041 294.782 1129.041 348.162 1052.329 347.826 1052.329 290.782" fill="#fff" stroke="#000" stroke-miterlimit="10" stroke-width="2"/>
            <polygon points="600.334 345.844 742.633 346.468 742.633 418.302 600.334 424.474 600.334 345.844" fill="#fff" stroke="#000" stroke-miterlimit="10" stroke-width="2"/>
            <polygon points="742.633 346.468 862.29 346.992 862.29 413.112 742.633 418.302 742.633 346.468" fill="#fff" stroke="#000" stroke-miterlimit="10" stroke-width="2"/>
            <polygon points="862.29 346.992 964.312 347.44 964.312 408.687 862.29 413.112 862.29 346.992" fill="#fff" stroke="#000" stroke-miterlimit="10" stroke-width="2"/>
            <polygon points="964.312 347.44 1052.329 347.826 1052.329 404.869 964.312 408.687 964.312 347.44" fill="#fff" stroke="#000" stroke-miterlimit="10" stroke-width="2"/>
            <polygon points="1052.329 347.826 1129.041 348.162 1129.041 401.542 1052.329 404.869 1052.329 347.826" fill="#fff" stroke="#000" stroke-miterlimit="10" stroke-width="2"/>
            <path d="M895.905,411.654c0-35.624,31.508-64.366,68.407-64.204,34.891.153,61.813,26.366,61.813,58.556" fill="none" stroke="#000" stroke-miterlimit="10" stroke-width="2"/>
            <path d="M862.29,413.112c0-53.13,47.615-94.957,102.022-93.536,50.152,1.31,88.017,39.456,88.017,85.293" fill="none" stroke="#000" stroke-miterlimit="10" stroke-width="2"/>
            <path d="M820.133,414.941c0-75.084,68.367-132.402,144.179-128.465,67.796,3.52,117.711,55.806,117.711,117.106" fill="none" stroke="#000" stroke-miterlimit="10" stroke-width="2"/>
            <path d="M742.633,418.302c0-115.444,108.044-198.7,221.679-187.837,96.528,9.228,164.728,85.291,164.728,171.076" fill="none" stroke="#000" stroke-miterlimit="10" stroke-width="2"/>
            <path d="M964.312,408.687l232.18-60.229-232.18,60.229Z" fill="none" stroke="#000" stroke-miterlimit="10" stroke-width="2"/>
            <polyline points="742.633 346.468 964.312 408.687 1129.041 294.782 964.312 408.687 600.334 188.582" fill="none" stroke="#000" stroke-miterlimit="10" stroke-width="2"/>
            <polyline points="1017.598 337.306 964.312 408.687 862.29 214.753" fill="none" stroke="#000" stroke-miterlimit="10" stroke-width="2"/>
            <line x1="1091.958" y1="237.698" x2="1017.598" y2="337.306" fill="none" stroke="#000" stroke-miterlimit="10" stroke-width="2"/>
            <path d="M899.79,390.577c-2.44,6.409-3.854,13.38-3.885,21.077l68.407-2.967-64.522-18.11Z" fill="#707070" stroke-width="0"/>
            <path d="M881.388,358.541c-5.537,6.258-9.807,14.138-13.167,23.176l31.57,8.861c2.694-5.901,5.566-11.181,8.669-15.666l-27.072-16.371Z" fill="#707070" stroke-width="0"/>
            <path d="M935.326,353.587l28.986,55.1v-61.247c-9.731-.102-19.39,1.977-28.986,6.148Z" fill="#707070" stroke-width="0"/>
            <path d="M847.791,338.224l33.596,20.317c10.061-12.825,23.513-23.151,40.307-30.865l-16.562-31.483c-23.577,9.839-42.995,23.717-57.342,42.031Z" fill="#707070" stroke-width="0"/>
            <path d="M964.312,286.475v60.964c13.772.359,26.214,3.842,37.023,11.497l34.945-46.655c-20.811-15.701-44.771-24.177-71.968-25.806Z" fill="#707070" stroke-width="0"/>
            <path d="M786.998,301.461c-12.495,14.546-22.721,30.84-30.443,48.914l72.195,20.263c4.312-10.981,10.589-21.804,19.042-32.414l-60.793-36.763Z" fill="#707070" stroke-width="0"/>
            <path d="M1015.077,372.309c4.714,6.81,7.867,13.713,9.572,20.726l25.623-6.649c-2.261-10.468-6.357-19.985-12.531-28.472l-22.663,14.395Z" fill="#707070" stroke-width="0"/>
            <path d="M1103.215,312.64l-40.296,27.863,4.623,7.519,52.728.1c-3.84-11.087-9.673-22.952-17.054-35.483Z" fill="#707070" stroke-width="0"/>
            <polygon points="1052.329 233.738 1052.329 290.782 1091.958 237.698 1052.329 233.738" fill="#707070" stroke-width="0"/>
            <polygon points="600.334 188.582 742.633 274.633 742.633 202.798 600.334 188.582" fill="#707070" stroke-width="0"/>
            <path d="M810.569,278.175c15.414-12.635,32.517-23.353,51.721-31.722v34.419s-51.721-2.697-51.721-2.697Z" fill="#707070" stroke-width="0"/>
          </g>
        </g>
        <polygon points="450.35 208.293 600.334 189.596 600.334 604.219 450.35 581.244 450.35 208.293" fill="#000" stroke="#000" stroke-linejoin="bevel" stroke-width="5"/>
        <polygon points="467.699 454.408 467.7 584.306 521.125 592.505 521.125 457.913 467.699 454.408" fill="#fff" stroke="#000" stroke-linejoin="bevel" stroke-width="5"/>
        <polygon points="521.125 457.913 521.125 592.505 578.557 601.318 578.556 461.681 521.125 457.913" fill="#fff" stroke="#000" stroke-linejoin="bevel" stroke-width="5"/>
        <polygon points="358.274 458.374 358.273 594.166 295.48 602.01 295.481 461.72 358.274 458.374" fill="#fff" stroke="#000" stroke-linejoin="bevel" stroke-width="5"/>
        <polygon points="417.164 455.237 417.164 586.809 358.273 594.166 358.273 458.374 417.164 455.237" fill="#fff" stroke="#000" stroke-linejoin="bevel" stroke-width="5"/>
        <g>
          <g>
            <g>
              <polygon points="337.525 206.52 331.335 210.927 323.62 192.098 329.86 187.735 337.525 206.52" fill="#fff" stroke-width="0"/>
              <path d="M332.075,212.734l-2.024-.893-7.725-18.838.547-2.727,6.244-4.359,2.025.921,7.655,18.777-.538,2.709-6.185,4.411ZM325.657,193.015l6.22,15.193,3.636-2.584-6.196-15.172-3.659,2.564Z" fill="#000" stroke-width="0"/>
            </g>
            <g>
              <polygon points="318.369 227.187 314.728 235.492 301.093 223.98 304.785 215.639 318.369 227.187" fill="#fff" stroke-width="0"/>
              <path d="M313.975,237.211l-13.646-11.504-.56-2.845,3.697-8.345,2.08-.597,13.573,11.556.549,2.816-3.636,8.301-2.057.618ZM303.178,223.372l10.999,9.299,2.14-4.876-10.974-9.317-2.164,4.893Z" fill="#000" stroke-width="0"/>
            </g>
            <g>
              <polygon points="309.752 259.073 309.752 268.971 293.909 268.25 293.909 258.271 309.752 259.073" fill="#fff" stroke-width="0"/>
              <path d="M309.752,271.015l-15.843-.704-1.54-2.131v-9.986s1.54-1.983,1.54-1.983l15.843.818,1.513,2.121v9.89l-1.513,1.975ZM295.447,266.261l12.79.595v-5.814l-12.79-.634v5.852Z" fill="#000" stroke-width="0"/>
            </g>
            <g>
              <polygon points="314.271 293.18 317.913 301.837 304.323 312.083 300.629 303.385 314.271 293.18" fill="#fff" stroke-width="0"/>
              <path d="M305.084,313.875l-2.081-.797-3.699-8.702.56-2.791,13.652-10.196,2.058.816,3.637,8.652-.549,2.764-13.58,10.255ZM302.715,304.194l2.165,5.102,10.98-8.265-2.141-5.083-11.004,8.245Z" fill="#000" stroke-width="0"/>
            </g>
            <g>
              <polygon points="330.557 319.789 336.752 324.79 329.08 342.849 322.836 337.886 330.557 319.789" fill="#fff" stroke-width="0"/>
              <path d="M328.338,344.597l-6.249-4.959-.547-2.781,7.731-18.105,2.025-.699,6.19,5.005.538,2.762-7.661,18.051-2.027.727ZM324.874,337.164l3.662,2.915,6.201-14.585-3.639-2.933-6.225,14.603Z" fill="#000" stroke-width="0"/>
            </g>
            <g>
              <polygon points="353.81 331.663 360.788 331.757 360.788 352.414 353.81 352.396 353.81 331.663" fill="#fff" stroke-width="0"/>
              <path d="M360.788,354.405l-6.978-.011-1.448-2.002v-20.749l1.448-1.978,6.978.102,1.435,2.01v20.641l-1.435,1.987ZM355.255,350.403l4.096.015v-16.688s-4.096-.051-4.096-.051v16.725Z" fill="#000" stroke-width="0"/>
            </g>
            <g>
              <polygon points="377.537 326.083 383.434 321.42 390.679 339.167 384.828 343.867 377.537 326.083" fill="#fff" stroke-width="0"/>
              <path d="M385.528,345.574l-1.912-.732-7.3-17.792.517-2.688,5.901-4.66,1.914.758,7.235,17.739-.509,2.67-5.846,4.704ZM379.462,326.837l5.878,14.35,3.436-2.757-5.856-14.333-3.458,2.739Z" fill="#000" stroke-width="0"/>
            </g>
            <g>
              <polygon points="395.545 305.093 398.889 297.008 411.197 307.462 407.897 315.512 395.545 305.093" fill="#fff" stroke-width="0"/>
              <path d="M407.215,317.178l-12.361-10.412-.507-2.685,3.348-8.088,1.884-.651,12.299,10.461.497,2.659-3.295,8.046-1.864.669ZM397.434,304.431l9.964,8.417,1.939-4.726-9.943-8.434-1.96,4.743Z" fill="#000" stroke-width="0"/>
            </g>
            <g>
              <polygon points="403.42 274.414 403.42 264.992 417.548 265.698 417.548 275.048 403.42 274.414" fill="#fff" stroke-width="0"/>
              <path d="M417.548,276.978l-14.128-.619-1.373-2.007v-9.428l1.373-1.877,14.128.721,1.35,1.998v9.342l-1.35,1.87ZM404.791,272.531l11.405.524v-5.491l-11.405-.558v5.525Z" fill="#000" stroke-width="0"/>
            </g>
            <g>
              <polygon points="399.307 241.836 395.965 233.436 408.312 224.191 411.609 232.552 399.307 241.836" fill="#fff" stroke-width="0"/>
              <path d="M399.996,243.567l-1.883-.83-3.346-8.403.507-2.636,12.356-9.237,1.864.846,3.294,8.357-.497,2.611-12.293,9.292ZM397.852,234.276l1.959,4.928,9.939-7.488-1.938-4.909-9.96,7.47Z" fill="#000" stroke-width="0"/>
            </g>
            <g>
              <polygon points="384.17 215.55 378.278 210.328 385.563 193.244 391.409 198.499 384.17 215.55" fill="#fff" stroke-width="0"/>
              <path d="M383.469,217.2l-5.896-5.218-.516-2.736,7.294-17.091,1.911-.55,5.842,5.258.508,2.717-7.23,17.044-1.913.576ZM380.202,209.759l3.455,3.066,5.852-13.77-3.434-3.082-5.873,13.786Z" fill="#000" stroke-width="0"/>
            </g>
            <g>
              <polygon points="361.659 202.47 354.687 201.899 354.687 181.175 361.659 181.822 361.659 202.47" fill="#fff" stroke-width="0"/>
              <path d="M361.659,204.46l-6.972-.564-1.446-2.115v-20.739s1.446-1.863,1.446-1.863l6.972.654,1.433,2.123v20.632l-1.433,1.872ZM356.131,200.022l4.092.339v-16.681l-4.092-.376v16.717Z" fill="#000" stroke-width="0"/>
            </g>
          </g>
          <g>
            <polygon points="361.659 254.203 357.581 260.757 331.699 237.018 335.889 230.426 361.659 254.203" fill="#fff" stroke-width="0"/>
            <path d="M356.817,262.409l-25.903-23.726-.352-3.032,4.194-6.592,1.914-.289,25.749,23.789.34,2.978-4.073,6.553-1.87.319ZM333.921,236.674l23.359,21.454,2.221-3.566-23.304-21.473-2.276,3.584Z" fill="#000" stroke-width="0"/>
          </g>
          <g>
            <polygon points="393.444 235.876 396.091 243.575 357.445 261.522 354.687 253.689 393.444 235.876" fill="#fff" stroke-width="0"/>
            <path d="M357.948,263.416l-1.794-1.072-2.762-7.838.791-2.717,38.778-17.778,1.725,1.077,2.643,7.694-.756,2.652-38.625,17.982ZM356.692,254.896l1.467,4.169,36.009-16.683-1.411-4.101-36.064,16.616Z" fill="#000" stroke-width="0"/>
          </g>
        </g>
        <polygon points="329.872 533.99 329.872 540.94 387.377 537.004 387.295 530.059 329.872 533.99" fill="#fff" stroke="#000" stroke-linejoin="bevel" stroke-width="3"/>
        <polygon points="252.222 607.414 -190.906 542.604 -190.906 172.225 252.222 107.414 252.222 607.414" fill="#fff" stroke="#000" stroke-linejoin="bevel" stroke-width="5"/>
        <polygon points="228.824 455.336 -177.754 431.721 -177.756 506.594 228.823 554.003 228.824 455.336" fill="#fff" stroke="#000" stroke-linejoin="bevel" stroke-width="5"/>
        <polyline points="-190.906 172.225 -177.756 171.179 -177.756 328.727 -78.893 326.51 -78.893 156.964 -63.299 154.204 -63.299 326.16 62.121 323.348 64.198 135.598 83.221 132.168 83.221 322.874 228.824 319.609 228.824 111.323 252.222 107.414 252.222 357.414 -190.906 357.414 -190.906 202.834" fill="#000" stroke="#000" stroke-linejoin="bevel" stroke-width="5"/>
        <polygon points="228.824 455.336 -173.476 432.063 -173.723 500.122 229.12 544.205 228.824 455.336" fill="#fff" stroke="#000" stroke-linejoin="bevel" stroke-width="5"/>
      </g>
    </g>
  </g>
  <g id="d" data-name="Layer 3">
    <g>
      <path d="M1.5,703.329V1.5h1064.541v701.829H1.5ZM26.198,678.833h1014.944V26.118H26.198v652.716Z" fill="#fff" stroke-width="0"/>
      <path d="M1064.541,3v698.829H3V3h1061.541M24.698,680.333h1017.943V24.618H24.698v655.716M1067.541,0H0v704.829h1067.541V0h0ZM27.698,677.333V27.618h1011.943v649.716H27.698Z" fill="#000" stroke-width="0"/>
    </g>
  </g>
</svg>